<?xml version="1.0" encoding="UTF-8" standalone="no"?><svg xmlns="http://www.w3.org/2000/svg" xmlns:xlink="http://www.w3.org/1999/xlink" contentScriptType="application/ecmascript" contentStyleType="text/css" height="308px" preserveAspectRatio="none" style="width:388px;height:308px;" version="1.1" viewBox="0 0 388 308" width="388px" zoomAndPan="magnify"><defs><filter height="300%" id="f1p47gp9bp21i5" width="300%" x="-1" y="-1"><feGaussianBlur result="blurOut" stdDeviation="2.0"/><feColorMatrix in="blurOut" result="blurOut2" type="matrix" values="0 0 0 0 0 0 0 0 0 0 0 0 0 0 0 0 0 0 .4 0"/><feOffset dx="4.0" dy="4.0" in="blurOut2" result="blurOut3"/><feBlend in="SourceGraphic" in2="blurOut3" mode="normal"/></filter></defs><g><!--class Edible--><rect fill="#FEFECE" filter="url(#f1p47gp9bp21i5)" height="60.8047" id="Edible" style="stroke: #A80036; stroke-width: 1.5;" width="103" x="107.5" y="8"/><ellipse cx="137.35" cy="24" fill="#B4A7E5" rx="11" ry="11" style="stroke: #A80036; stroke-width: 1.0;"/><path d="M133.2719,19.7656 L133.2719,17.6094 L140.6625,17.6094 L140.6625,19.7656 L138.1938,19.7656 L138.1938,27.8438 L140.6625,27.8438 L140.6625,30 L133.2719,30 L133.2719,27.8438 L135.7406,27.8438 L135.7406,19.7656 L133.2719,19.7656 Z "/><text fill="#000000" font-family="sans-serif" font-size="12" font-style="italic" lengthAdjust="spacingAndGlyphs" textLength="38" x="154.65" y="28.1543">Edible</text><line style="stroke: #A80036; stroke-width: 1.5;" x1="108.5" x2="209.5" y1="40" y2="40"/><line style="stroke: #A80036; stroke-width: 1.5;" x1="108.5" x2="209.5" y1="48" y2="48"/><text fill="#000000" font-family="sans-serif" font-size="11" font-style="italic" lengthAdjust="spacingAndGlyphs" textLength="91" x="113.5" y="62.2104">void howToEat()</text><!--class Fruit--><rect fill="#FEFECE" filter="url(#f1p47gp9bp21i5)" height="48" id="Fruit" style="stroke: #A80036; stroke-width: 1.5;" width="60" x="95" y="129"/><ellipse cx="110" cy="145" fill="#A9DCDF" rx="11" ry="11" style="stroke: #A80036; stroke-width: 1.0;"/><path d="M110.1094,140.3438 L108.9531,145.4219 L111.2813,145.4219 L110.1094,140.3438 Z M108.625,138.1094 L111.6094,138.1094 L114.9688,150.5 L112.5156,150.5 L111.75,147.4375 L108.4688,147.4375 L107.7188,150.5 L105.2813,150.5 L108.625,138.1094 Z "/><text fill="#000000" font-family="sans-serif" font-size="12" font-style="italic" lengthAdjust="spacingAndGlyphs" textLength="28" x="124" y="149.1543">Fruit</text><line style="stroke: #A80036; stroke-width: 1.5;" x1="96" x2="154" y1="161" y2="161"/><line style="stroke: #A80036; stroke-width: 1.5;" x1="96" x2="154" y1="169" y2="169"/><!--class Animal--><rect fill="#FEFECE" filter="url(#f1p47gp9bp21i5)" height="60.8047" id="Animal" style="stroke: #A80036; stroke-width: 1.5;" width="114" x="263" y="8"/><ellipse cx="296.45" cy="24" fill="#A9DCDF" rx="11" ry="11" style="stroke: #A80036; stroke-width: 1.0;"/><path d="M296.5594,19.3438 L295.4031,24.4219 L297.7313,24.4219 L296.5594,19.3438 Z M295.075,17.1094 L298.0594,17.1094 L301.4188,29.5 L298.9656,29.5 L298.2,26.4375 L294.9188,26.4375 L294.1688,29.5 L291.7313,29.5 L295.075,17.1094 Z "/><text fill="#000000" font-family="sans-serif" font-size="12" font-style="italic" lengthAdjust="spacingAndGlyphs" textLength="41" x="314.55" y="28.1543">Animal</text><line style="stroke: #A80036; stroke-width: 1.5;" x1="264" x2="376" y1="40" y2="40"/><line style="stroke: #A80036; stroke-width: 1.5;" x1="264" x2="376" y1="48" y2="48"/><text fill="#000000" font-family="sans-serif" font-size="11" font-style="italic" lengthAdjust="spacingAndGlyphs" textLength="102" x="269" y="62.2104">void makeSound()</text><!--class Orange--><rect fill="#FEFECE" filter="url(#f1p47gp9bp21i5)" height="60.8047" id="Orange" style="stroke: #A80036; stroke-width: 1.5;" width="102" x="6" y="237"/><ellipse cx="31.8" cy="253" fill="#ADD1B2" rx="11" ry="11" style="stroke: #A80036; stroke-width: 1.0;"/><path d="M34.7688,258.6406 Q34.1906,258.9375 33.55,259.0859 Q32.9094,259.2344 32.2063,259.2344 Q29.7063,259.2344 28.3859,257.5859 Q27.0656,255.9375 27.0656,252.8125 Q27.0656,249.6875 28.3859,248.0313 Q29.7063,246.375 32.2063,246.375 Q32.9094,246.375 33.5578,246.5313 Q34.2063,246.6875 34.7688,246.9844 L34.7688,249.7031 Q34.1438,249.125 33.55,248.8516 Q32.9563,248.5781 32.3313,248.5781 Q30.9875,248.5781 30.3,249.6484 Q29.6125,250.7188 29.6125,252.8125 Q29.6125,254.9063 30.3,255.9766 Q30.9875,257.0469 32.3313,257.0469 Q32.9563,257.0469 33.55,256.7734 Q34.1438,256.5 34.7688,255.9219 L34.7688,258.6406 Z "/><text fill="#000000" font-family="sans-serif" font-size="12" lengthAdjust="spacingAndGlyphs" textLength="46" x="48.2" y="257.1543">Orange</text><line style="stroke: #A80036; stroke-width: 1.5;" x1="7" x2="107" y1="269" y2="269"/><line style="stroke: #A80036; stroke-width: 1.5;" x1="7" x2="107" y1="277" y2="277"/><text fill="#000000" font-family="sans-serif" font-size="11" lengthAdjust="spacingAndGlyphs" textLength="90" x="12" y="291.2104">void howToEat()</text><!--class Apple--><rect fill="#FEFECE" filter="url(#f1p47gp9bp21i5)" height="60.8047" id="Apple" style="stroke: #A80036; stroke-width: 1.5;" width="102" x="143" y="237"/><ellipse cx="173.75" cy="253" fill="#ADD1B2" rx="11" ry="11" style="stroke: #A80036; stroke-width: 1.0;"/><path d="M176.7188,258.6406 Q176.1406,258.9375 175.5,259.0859 Q174.8594,259.2344 174.1563,259.2344 Q171.6563,259.2344 170.3359,257.5859 Q169.0156,255.9375 169.0156,252.8125 Q169.0156,249.6875 170.3359,248.0313 Q171.6563,246.375 174.1563,246.375 Q174.8594,246.375 175.5078,246.5313 Q176.1563,246.6875 176.7188,246.9844 L176.7188,249.7031 Q176.0938,249.125 175.5,248.8516 Q174.9063,248.5781 174.2813,248.5781 Q172.9375,248.5781 172.25,249.6484 Q171.5625,250.7188 171.5625,252.8125 Q171.5625,254.9063 172.25,255.9766 Q172.9375,257.0469 174.2813,257.0469 Q174.9063,257.0469 175.5,256.7734 Q176.0938,256.5 176.7188,255.9219 L176.7188,258.6406 Z "/><text fill="#000000" font-family="sans-serif" font-size="12" lengthAdjust="spacingAndGlyphs" textLength="35" x="191.25" y="257.1543">Apple</text><line style="stroke: #A80036; stroke-width: 1.5;" x1="144" x2="244" y1="269" y2="269"/><line style="stroke: #A80036; stroke-width: 1.5;" x1="144" x2="244" y1="277" y2="277"/><text fill="#000000" font-family="sans-serif" font-size="11" lengthAdjust="spacingAndGlyphs" textLength="90" x="149" y="291.2104">void howToEat()</text><!--class Chicken--><rect fill="#FEFECE" filter="url(#f1p47gp9bp21i5)" height="48" id="Chicken" style="stroke: #A80036; stroke-width: 1.5;" width="81" x="190.5" y="129"/><ellipse cx="205.5" cy="145" fill="#ADD1B2" rx="11" ry="11" style="stroke: #A80036; stroke-width: 1.0;"/><path d="M208.4688,150.6406 Q207.8906,150.9375 207.25,151.0859 Q206.6094,151.2344 205.9063,151.2344 Q203.4063,151.2344 202.0859,149.5859 Q200.7656,147.9375 200.7656,144.8125 Q200.7656,141.6875 202.0859,140.0313 Q203.4063,138.375 205.9063,138.375 Q206.6094,138.375 207.2578,138.5313 Q207.9063,138.6875 208.4688,138.9844 L208.4688,141.7031 Q207.8438,141.125 207.25,140.8516 Q206.6563,140.5781 206.0313,140.5781 Q204.6875,140.5781 204,141.6484 Q203.3125,142.7188 203.3125,144.8125 Q203.3125,146.9063 204,147.9766 Q204.6875,149.0469 206.0313,149.0469 Q206.6563,149.0469 207.25,148.7734 Q207.8438,148.5 208.4688,147.9219 L208.4688,150.6406 Z "/><text fill="#000000" font-family="sans-serif" font-size="12" lengthAdjust="spacingAndGlyphs" textLength="49" x="219.5" y="149.1543">Chicken</text><line style="stroke: #A80036; stroke-width: 1.5;" x1="191.5" x2="270.5" y1="161" y2="161"/><line style="stroke: #A80036; stroke-width: 1.5;" x1="191.5" x2="270.5" y1="169" y2="169"/><!--class Tiger--><rect fill="#FEFECE" filter="url(#f1p47gp9bp21i5)" height="48" id="Tiger" style="stroke: #A80036; stroke-width: 1.5;" width="63" x="306.5" y="129"/><ellipse cx="321.5" cy="145" fill="#ADD1B2" rx="11" ry="11" style="stroke: #A80036; stroke-width: 1.0;"/><path d="M324.4688,150.6406 Q323.8906,150.9375 323.25,151.0859 Q322.6094,151.2344 321.9063,151.2344 Q319.4063,151.2344 318.0859,149.5859 Q316.7656,147.9375 316.7656,144.8125 Q316.7656,141.6875 318.0859,140.0313 Q319.4063,138.375 321.9063,138.375 Q322.6094,138.375 323.2578,138.5313 Q323.9063,138.6875 324.4688,138.9844 L324.4688,141.7031 Q323.8438,141.125 323.25,140.8516 Q322.6563,140.5781 322.0313,140.5781 Q320.6875,140.5781 320,141.6484 Q319.3125,142.7188 319.3125,144.8125 Q319.3125,146.9063 320,147.9766 Q320.6875,149.0469 322.0313,149.0469 Q322.6563,149.0469 323.25,148.7734 Q323.8438,148.5 324.4688,147.9219 L324.4688,150.6406 Z "/><text fill="#000000" font-family="sans-serif" font-size="12" lengthAdjust="spacingAndGlyphs" textLength="31" x="335.5" y="149.1543">Tiger</text><line style="stroke: #A80036; stroke-width: 1.5;" x1="307.5" x2="368.5" y1="161" y2="161"/><line style="stroke: #A80036; stroke-width: 1.5;" x1="307.5" x2="368.5" y1="169" y2="169"/><!--reverse link Animal to Chicken--><path d="M283.5681,85.3703 C271.9856,100.2714 259.6486,116.1431 249.8389,128.7634 " fill="none" id="Animal&lt;-Chicken" style="stroke: #A80036; stroke-width: 1.0;"/><polygon fill="none" points="278.3488,80.6787,296.1496,69.1839,289.4023,89.2706,278.3488,80.6787" style="stroke: #A80036; stroke-width: 1.0;"/><!--reverse link Animal to Tiger--><path d="M327.9757,89.2346 C330.1363,102.9779 332.3766,117.2288 334.1899,128.7634 " fill="none" id="Animal&lt;-Tiger" style="stroke: #A80036; stroke-width: 1.0;"/><polygon fill="none" points="321.0146,90.0284,324.8237,69.1839,334.8448,87.8541,321.0146,90.0284" style="stroke: #A80036; stroke-width: 1.0;"/><!--reverse link Edible to Chicken--><path d="M189.0783,86.3329 C198.2715,100.9525 207.9943,116.4145 215.7595,128.7634 " fill="none" id="Edible&lt;-Chicken" style="stroke: #A80036; stroke-width: 1.0;"/><polygon fill="none" points="183.0154,89.841,178.2947,69.1839,194.867,82.3885,183.0154,89.841" style="stroke: #A80036; stroke-width: 1.0;"/><!--reverse link Edible to Fruit--><path d="M144.0787,88.7497 C139.9534,102.6422 135.6623,117.0931 132.1969,128.7634 " fill="none" id="Edible&lt;-Fruit" style="stroke: #A80036; stroke-width: 1.0;"/><polygon fill="none" points="137.485,86.3638,149.8886,69.1839,150.9058,90.3491,137.485,86.3638" style="stroke: #A80036; stroke-width: 1.0;"/><!--reverse link Fruit to Orange--><path d="M100.4227,194.3839 C92.0655,208.4559 82.8837,223.9164 75.1244,236.9818 " fill="none" id="Fruit&lt;-Orange" style="stroke: #A80036; stroke-width: 1.0;"/><polygon fill="none" points="94.5138,190.6246,110.745,177.003,106.551,197.7734,94.5138,190.6246" style="stroke: #A80036; stroke-width: 1.0;"/><!--reverse link Fruit to Apple--><path d="M149.9387,194.3839 C158.4188,208.4559 167.7357,223.9164 175.6091,236.9818 " fill="none" id="Fruit&lt;-Apple" style="stroke: #A80036; stroke-width: 1.0;"/><polygon fill="none" points="143.7921,197.746,139.4647,177.003,155.7831,190.52,143.7921,197.746" style="stroke: #A80036; stroke-width: 1.0;"/><!--
@startuml Animla_Edible UML
    interface Edible {
        {abstract} void howToEat()
    }
    abstract class Fruit {

    }
    abstract class Animal {
        {abstract} void makeSound()
    }
    class Orange {
        void howToEat()
    }
    class Apple {
        void howToEat()
    }
    
    Animal <|- - Chicken
    Animal <|- - Tiger
    Edible <|- - Chicken
    Edible <|- - Fruit
    Fruit <|- - Orange
    Fruit <|- -Apple
@enduml

PlantUML version 1.2019.09(Mon Aug 26 23:19:51 ICT 2019)
(GPL source distribution)
Java Runtime: OpenJDK Runtime Environment
JVM: OpenJDK 64-Bit Server VM
Java Version: 1.8.0_171-8u171-b11-2-b11
Operating System: Linux
OS Version: 4.19.0-kali1-amd64
Default Encoding: UTF-8
Language: en
Country: US
--></g></svg>