<?xml version="1.0" encoding="UTF-8" standalone="no"?><svg xmlns="http://www.w3.org/2000/svg" xmlns:xlink="http://www.w3.org/1999/xlink" contentScriptType="application/ecmascript" contentStyleType="text/css" height="705px" preserveAspectRatio="none" style="width:1143px;height:705px;" version="1.1" viewBox="0 0 1143 705" width="1143px" zoomAndPan="magnify"><defs><filter height="300%" id="frifsik8mknes" width="300%" x="-1" y="-1"><feGaussianBlur result="blurOut" stdDeviation="2.0"/><feColorMatrix in="blurOut" result="blurOut2" type="matrix" values="0 0 0 0 0 0 0 0 0 0 0 0 0 0 0 0 0 0 .4 0"/><feOffset dx="4.0" dy="4.0" in="blurOut2" result="blurOut3"/><feBlend in="SourceGraphic" in2="blurOut3" mode="normal"/></filter></defs><g><!--class Resizeable--><rect fill="#FEFECE" filter="url(#frifsik8mknes)" height="60.8047" id="Resizeable" style="stroke: #A80036; stroke-width: 1.5;" width="180" x="427" y="8"/><ellipse cx="479.75" cy="24" fill="#B4A7E5" rx="11" ry="11" style="stroke: #A80036; stroke-width: 1.0;"/><path d="M475.6719,19.7656 L475.6719,17.6094 L483.0625,17.6094 L483.0625,19.7656 L480.5938,19.7656 L480.5938,27.8438 L483.0625,27.8438 L483.0625,30 L475.6719,30 L475.6719,27.8438 L478.1406,27.8438 L478.1406,19.7656 L475.6719,19.7656 Z "/><text fill="#000000" font-family="sans-serif" font-size="12" font-style="italic" lengthAdjust="spacingAndGlyphs" textLength="66" x="500.25" y="28.1543">Resizeable</text><line style="stroke: #A80036; stroke-width: 1.5;" x1="428" x2="606" y1="40" y2="40"/><line style="stroke: #A80036; stroke-width: 1.5;" x1="428" x2="606" y1="48" y2="48"/><ellipse cx="438" cy="59" fill="#84BE84" rx="3" ry="3" style="stroke: #038048; stroke-width: 1.0;"/><text fill="#000000" font-family="sans-serif" font-size="11" lengthAdjust="spacingAndGlyphs" textLength="154" x="447" y="62.2104">void resize(double percent)</text><!--class User--><rect fill="#FEFECE" filter="url(#frifsik8mknes)" height="86.4141" id="User" style="stroke: #A80036; stroke-width: 1.5;" width="122" x="6" y="505.5"/><ellipse cx="48.45" cy="521.5" fill="#ADD1B2" rx="11" ry="11" style="stroke: #A80036; stroke-width: 1.0;"/><path d="M51.4188,527.1406 Q50.8406,527.4375 50.2,527.5859 Q49.5594,527.7344 48.8563,527.7344 Q46.3563,527.7344 45.0359,526.0859 Q43.7156,524.4375 43.7156,521.3125 Q43.7156,518.1875 45.0359,516.5313 Q46.3563,514.875 48.8563,514.875 Q49.5594,514.875 50.2078,515.0313 Q50.8563,515.1875 51.4188,515.4844 L51.4188,518.2031 Q50.7938,517.625 50.2,517.3516 Q49.6063,517.0781 48.9813,517.0781 Q47.6375,517.0781 46.95,518.1484 Q46.2625,519.2188 46.2625,521.3125 Q46.2625,523.4063 46.95,524.4766 Q47.6375,525.5469 48.9813,525.5469 Q49.6063,525.5469 50.2,525.2734 Q50.7938,525 51.4188,524.4219 L51.4188,527.1406 Z "/><text fill="#000000" font-family="sans-serif" font-size="12" lengthAdjust="spacingAndGlyphs" textLength="29" x="68.55" y="525.6543">User</text><line style="stroke: #A80036; stroke-width: 1.5;" x1="7" x2="127" y1="537.5" y2="537.5"/><rect fill="none" height="6" style="stroke: #C82930; stroke-width: 1.0;" width="6" x="14" y="545.5"/><text fill="#000000" font-family="sans-serif" font-size="11" lengthAdjust="spacingAndGlyphs" textLength="64" x="26" y="551.7104">Scanner sc</text><line style="stroke: #A80036; stroke-width: 1.5;" x1="7" x2="127" y1="558.3047" y2="558.3047"/><ellipse cx="17" cy="569.3047" fill="#84BE84" rx="3" ry="3" style="stroke: #038048; stroke-width: 1.0;"/><text fill="#000000" font-family="sans-serif" font-size="11" lengthAdjust="spacingAndGlyphs" textLength="35" x="26" y="572.5151">User()</text><ellipse cx="17" cy="582.1094" fill="#84BE84" rx="3" ry="3" style="stroke: #038048; stroke-width: 1.0;"/><text fill="#000000" font-family="sans-serif" font-size="11" lengthAdjust="spacingAndGlyphs" textLength="96" x="26" y="585.3198">double getInput()</text><!--class Shape--><rect fill="#FEFECE" filter="url(#frifsik8mknes)" height="214.4609" id="Shape" style="stroke: #A80036; stroke-width: 1.5;" width="204" x="415" y="129"/><ellipse cx="492.75" cy="145" fill="#A9DCDF" rx="11" ry="11" style="stroke: #A80036; stroke-width: 1.0;"/><path d="M492.8594,140.3438 L491.7031,145.4219 L494.0313,145.4219 L492.8594,140.3438 Z M491.375,138.1094 L494.3594,138.1094 L497.7188,150.5 L495.2656,150.5 L494.5,147.4375 L491.2188,147.4375 L490.4688,150.5 L488.0313,150.5 L491.375,138.1094 Z "/><text fill="#000000" font-family="sans-serif" font-size="12" font-style="italic" lengthAdjust="spacingAndGlyphs" textLength="40" x="513.25" y="149.1543">Shape</text><line style="stroke: #A80036; stroke-width: 1.5;" x1="416" x2="618" y1="161" y2="161"/><polygon fill="none" points="426,167,430,171,426,175,422,171" style="stroke: #B38D22; stroke-width: 1.0;"/><text fill="#000000" font-family="sans-serif" font-size="11" lengthAdjust="spacingAndGlyphs" textLength="45" x="435" y="175.2104">int xPos</text><polygon fill="none" points="426,179.8047,430,183.8047,426,187.8047,422,183.8047" style="stroke: #B38D22; stroke-width: 1.0;"/><text fill="#000000" font-family="sans-serif" font-size="11" lengthAdjust="spacingAndGlyphs" textLength="45" x="435" y="188.0151">int yPos</text><polygon fill="none" points="426,192.6094,430,196.6094,426,200.6094,422,196.6094" style="stroke: #B38D22; stroke-width: 1.0;"/><text fill="#000000" font-family="sans-serif" font-size="11" lengthAdjust="spacingAndGlyphs" textLength="57" x="435" y="200.8198">User user</text><line style="stroke: #A80036; stroke-width: 1.5;" x1="416" x2="618" y1="207.4141" y2="207.4141"/><polygon fill="#FFFF44" points="426,213.4141,430,217.4141,426,221.4141,422,217.4141" style="stroke: #B38D22; stroke-width: 1.0;"/><text fill="#000000" font-family="sans-serif" font-size="11" lengthAdjust="spacingAndGlyphs" textLength="142" x="435" y="221.6245">Shape(int xPos, int yPos)</text><text fill="#000000" font-family="sans-serif" font-size="11" lengthAdjust="spacingAndGlyphs" textLength="0" x="439" y="234.4292"/><ellipse cx="426" cy="244.0234" fill="#84BE84" rx="3" ry="3" style="stroke: #038048; stroke-width: 1.0;"/><text fill="#000000" font-family="sans-serif" font-size="11" font-style="italic" lengthAdjust="spacingAndGlyphs" textLength="64" x="435" y="247.2339">void draw()</text><ellipse cx="426" cy="256.8281" fill="#84BE84" rx="3" ry="3" style="stroke: #038048; stroke-width: 1.0;"/><text fill="#000000" font-family="sans-serif" font-size="11" font-style="italic" lengthAdjust="spacingAndGlyphs" textLength="68" x="435" y="260.0386">void erase()</text><ellipse cx="426" cy="269.6328" fill="#84BE84" rx="3" ry="3" style="stroke: #038048; stroke-width: 1.0;"/><text fill="#000000" font-family="sans-serif" font-size="11" font-style="italic" lengthAdjust="spacingAndGlyphs" textLength="95" x="435" y="272.8433">double getArea()</text><text fill="#000000" font-family="sans-serif" font-size="11" lengthAdjust="spacingAndGlyphs" textLength="0" x="439" y="285.6479"/><ellipse cx="426" cy="295.2422" fill="#84BE84" rx="3" ry="3" style="stroke: #038048; stroke-width: 1.0;"/><text fill="#000000" font-family="sans-serif" font-size="11" lengthAdjust="spacingAndGlyphs" textLength="178" x="435" y="298.4526">void moveTo(int xPos, int yPos)</text><ellipse cx="426" cy="308.0469" fill="#84BE84" rx="3" ry="3" style="stroke: #038048; stroke-width: 1.0;"/><text fill="#000000" font-family="sans-serif" font-size="11" lengthAdjust="spacingAndGlyphs" textLength="154" x="435" y="311.2573">void resize(double percent)</text><text fill="#000000" font-family="sans-serif" font-size="11" lengthAdjust="spacingAndGlyphs" textLength="0" x="439" y="324.062"/><ellipse cx="426" cy="333.6563" fill="#84BE84" rx="3" ry="3" style="stroke: #038048; stroke-width: 1.0;"/><text fill="#000000" font-family="sans-serif" font-size="11" lengthAdjust="spacingAndGlyphs" textLength="91" x="435" y="336.8667">String toString()</text><!--class Circle--><rect fill="#FEFECE" filter="url(#frifsik8mknes)" height="214.4609" id="Circle" style="stroke: #A80036; stroke-width: 1.5;" width="195" x="163.5" y="441.5"/><ellipse cx="239.75" cy="457.5" fill="#ADD1B2" rx="11" ry="11" style="stroke: #A80036; stroke-width: 1.0;"/><path d="M242.7188,463.1406 Q242.1406,463.4375 241.5,463.5859 Q240.8594,463.7344 240.1563,463.7344 Q237.6563,463.7344 236.3359,462.0859 Q235.0156,460.4375 235.0156,457.3125 Q235.0156,454.1875 236.3359,452.5313 Q237.6563,450.875 240.1563,450.875 Q240.8594,450.875 241.5078,451.0313 Q242.1563,451.1875 242.7188,451.4844 L242.7188,454.2031 Q242.0938,453.625 241.5,453.3516 Q240.9063,453.0781 240.2813,453.0781 Q238.9375,453.0781 238.25,454.1484 Q237.5625,455.2188 237.5625,457.3125 Q237.5625,459.4063 238.25,460.4766 Q238.9375,461.5469 240.2813,461.5469 Q240.9063,461.5469 241.5,461.2734 Q242.0938,461 242.7188,460.4219 L242.7188,463.1406 Z "/><text fill="#000000" font-family="sans-serif" font-size="12" lengthAdjust="spacingAndGlyphs" textLength="34" x="260.25" y="461.6543">Circle</text><line style="stroke: #A80036; stroke-width: 1.5;" x1="164.5" x2="357.5" y1="473.5" y2="473.5"/><rect fill="none" height="6" style="stroke: #C82930; stroke-width: 1.0;" width="6" x="171.5" y="481.5"/><text fill="#000000" font-family="sans-serif" font-size="11" lengthAdjust="spacingAndGlyphs" textLength="78" x="183.5" y="487.7104">double raidus</text><line style="stroke: #A80036; stroke-width: 1.5;" x1="164.5" x2="357.5" y1="494.3047" y2="494.3047"/><ellipse cx="174.5" cy="505.3047" fill="#84BE84" rx="3" ry="3" style="stroke: #038048; stroke-width: 1.0;"/><text fill="#000000" font-family="sans-serif" font-size="11" lengthAdjust="spacingAndGlyphs" textLength="40" x="183.5" y="508.5151">Circle()</text><ellipse cx="174.5" cy="518.1094" fill="#84BE84" rx="3" ry="3" style="stroke: #038048; stroke-width: 1.0;"/><text fill="#000000" font-family="sans-serif" font-size="11" lengthAdjust="spacingAndGlyphs" textLength="118" x="183.5" y="521.3198">Circle(double radius)</text><text fill="#000000" font-family="sans-serif" font-size="11" lengthAdjust="spacingAndGlyphs" textLength="0" x="187.5" y="534.1245"/><ellipse cx="174.5" cy="543.7188" fill="#84BE84" rx="3" ry="3" style="stroke: #038048; stroke-width: 1.0;"/><text fill="#000000" font-family="sans-serif" font-size="11" lengthAdjust="spacingAndGlyphs" textLength="106" x="183.5" y="546.9292">double getRadius()</text><ellipse cx="174.5" cy="556.5234" fill="#84BE84" rx="3" ry="3" style="stroke: #038048; stroke-width: 1.0;"/><text fill="#000000" font-family="sans-serif" font-size="11" lengthAdjust="spacingAndGlyphs" textLength="169" x="183.5" y="559.7339">void setRadius(double radius)</text><text fill="#000000" font-family="sans-serif" font-size="11" lengthAdjust="spacingAndGlyphs" textLength="0" x="187.5" y="572.5386"/><ellipse cx="174.5" cy="582.1328" fill="#84BE84" rx="3" ry="3" style="stroke: #038048; stroke-width: 1.0;"/><text fill="#000000" font-family="sans-serif" font-size="11" lengthAdjust="spacingAndGlyphs" textLength="63" x="183.5" y="585.3433">void draw()</text><ellipse cx="174.5" cy="594.9375" fill="#84BE84" rx="3" ry="3" style="stroke: #038048; stroke-width: 1.0;"/><text fill="#000000" font-family="sans-serif" font-size="11" lengthAdjust="spacingAndGlyphs" textLength="68" x="183.5" y="598.1479">void erase()</text><ellipse cx="174.5" cy="607.7422" fill="#84BE84" rx="3" ry="3" style="stroke: #038048; stroke-width: 1.0;"/><text fill="#000000" font-family="sans-serif" font-size="11" lengthAdjust="spacingAndGlyphs" textLength="94" x="183.5" y="610.9526">double getArea()</text><ellipse cx="174.5" cy="620.5469" fill="#84BE84" rx="3" ry="3" style="stroke: #038048; stroke-width: 1.0;"/><text fill="#000000" font-family="sans-serif" font-size="11" lengthAdjust="spacingAndGlyphs" textLength="124" x="183.5" y="623.7573">double getPerimeter()</text><ellipse cx="174.5" cy="633.3516" fill="#84BE84" rx="3" ry="3" style="stroke: #038048; stroke-width: 1.0;"/><text fill="#000000" font-family="sans-serif" font-size="11" lengthAdjust="spacingAndGlyphs" textLength="154" x="183.5" y="636.562">void resize(double percent)</text><ellipse cx="174.5" cy="646.1563" fill="#84BE84" rx="3" ry="3" style="stroke: #038048; stroke-width: 1.0;"/><text fill="#000000" font-family="sans-serif" font-size="11" lengthAdjust="spacingAndGlyphs" textLength="91" x="183.5" y="649.3667">String toString()</text><!--class Rectangle--><rect fill="#FEFECE" filter="url(#frifsik8mknes)" height="252.875" id="Rectangle" style="stroke: #A80036; stroke-width: 1.5;" width="246" x="394" y="422"/><ellipse cx="481.25" cy="438" fill="#ADD1B2" rx="11" ry="11" style="stroke: #A80036; stroke-width: 1.0;"/><path d="M484.2188,443.6406 Q483.6406,443.9375 483,444.0859 Q482.3594,444.2344 481.6563,444.2344 Q479.1563,444.2344 477.8359,442.5859 Q476.5156,440.9375 476.5156,437.8125 Q476.5156,434.6875 477.8359,433.0313 Q479.1563,431.375 481.6563,431.375 Q482.3594,431.375 483.0078,431.5313 Q483.6563,431.6875 484.2188,431.9844 L484.2188,434.7031 Q483.5938,434.125 483,433.8516 Q482.4063,433.5781 481.7813,433.5781 Q480.4375,433.5781 479.75,434.6484 Q479.0625,435.7188 479.0625,437.8125 Q479.0625,439.9063 479.75,440.9766 Q480.4375,442.0469 481.7813,442.0469 Q482.4063,442.0469 483,441.7734 Q483.5938,441.5 484.2188,440.9219 L484.2188,443.6406 Z "/><text fill="#000000" font-family="sans-serif" font-size="12" lengthAdjust="spacingAndGlyphs" textLength="63" x="501.75" y="442.1543">Rectangle</text><line style="stroke: #A80036; stroke-width: 1.5;" x1="395" x2="639" y1="454" y2="454"/><rect fill="none" height="6" style="stroke: #C82930; stroke-width: 1.0;" width="6" x="402" y="462"/><text fill="#000000" font-family="sans-serif" font-size="11" lengthAdjust="spacingAndGlyphs" textLength="72" x="414" y="468.2104">double width</text><rect fill="none" height="6" style="stroke: #C82930; stroke-width: 1.0;" width="6" x="402" y="474.8047"/><text fill="#000000" font-family="sans-serif" font-size="11" lengthAdjust="spacingAndGlyphs" textLength="77" x="414" y="481.0151">double height</text><line style="stroke: #A80036; stroke-width: 1.5;" x1="395" x2="639" y1="487.6094" y2="487.6094"/><ellipse cx="405" cy="498.6094" fill="#84BE84" rx="3" ry="3" style="stroke: #038048; stroke-width: 1.0;"/><text fill="#000000" font-family="sans-serif" font-size="11" lengthAdjust="spacingAndGlyphs" textLength="63" x="414" y="501.8198">Rectangle()</text><ellipse cx="405" cy="511.4141" fill="#84BE84" rx="3" ry="3" style="stroke: #038048; stroke-width: 1.0;"/><text fill="#000000" font-family="sans-serif" font-size="11" lengthAdjust="spacingAndGlyphs" textLength="220" x="414" y="514.6245">Rectangle(double width, double height)</text><text fill="#000000" font-family="sans-serif" font-size="11" lengthAdjust="spacingAndGlyphs" textLength="0" x="418" y="527.4292"/><ellipse cx="405" cy="537.0234" fill="#84BE84" rx="3" ry="3" style="stroke: #038048; stroke-width: 1.0;"/><text fill="#000000" font-family="sans-serif" font-size="11" lengthAdjust="spacingAndGlyphs" textLength="98" x="414" y="540.2339">double getWidth()</text><ellipse cx="405" cy="549.8281" fill="#84BE84" rx="3" ry="3" style="stroke: #038048; stroke-width: 1.0;"/><text fill="#000000" font-family="sans-serif" font-size="11" lengthAdjust="spacingAndGlyphs" textLength="155" x="414" y="553.0386">void setWidth(double width)</text><ellipse cx="405" cy="562.6328" fill="#84BE84" rx="3" ry="3" style="stroke: #038048; stroke-width: 1.0;"/><text fill="#000000" font-family="sans-serif" font-size="11" lengthAdjust="spacingAndGlyphs" textLength="104" x="414" y="565.8433">double getHeight()</text><ellipse cx="405" cy="575.4375" fill="#84BE84" rx="3" ry="3" style="stroke: #038048; stroke-width: 1.0;"/><text fill="#000000" font-family="sans-serif" font-size="11" lengthAdjust="spacingAndGlyphs" textLength="166" x="414" y="578.6479">void setHeight(double height)</text><text fill="#000000" font-family="sans-serif" font-size="11" lengthAdjust="spacingAndGlyphs" textLength="0" x="418" y="591.4526"/><ellipse cx="405" cy="601.0469" fill="#84BE84" rx="3" ry="3" style="stroke: #038048; stroke-width: 1.0;"/><text fill="#000000" font-family="sans-serif" font-size="11" lengthAdjust="spacingAndGlyphs" textLength="63" x="414" y="604.2573">void draw()</text><ellipse cx="405" cy="613.8516" fill="#84BE84" rx="3" ry="3" style="stroke: #038048; stroke-width: 1.0;"/><text fill="#000000" font-family="sans-serif" font-size="11" lengthAdjust="spacingAndGlyphs" textLength="68" x="414" y="617.062">void erase()</text><ellipse cx="405" cy="626.6563" fill="#84BE84" rx="3" ry="3" style="stroke: #038048; stroke-width: 1.0;"/><text fill="#000000" font-family="sans-serif" font-size="11" lengthAdjust="spacingAndGlyphs" textLength="94" x="414" y="629.8667">double getArea()</text><ellipse cx="405" cy="639.4609" fill="#84BE84" rx="3" ry="3" style="stroke: #038048; stroke-width: 1.0;"/><text fill="#000000" font-family="sans-serif" font-size="11" lengthAdjust="spacingAndGlyphs" textLength="124" x="414" y="642.6714">double getPerimeter()</text><ellipse cx="405" cy="652.2656" fill="#84BE84" rx="3" ry="3" style="stroke: #038048; stroke-width: 1.0;"/><text fill="#000000" font-family="sans-serif" font-size="11" lengthAdjust="spacingAndGlyphs" textLength="154" x="414" y="655.4761">void resize(double percent)</text><ellipse cx="405" cy="665.0703" fill="#84BE84" rx="3" ry="3" style="stroke: #038048; stroke-width: 1.0;"/><text fill="#000000" font-family="sans-serif" font-size="11" lengthAdjust="spacingAndGlyphs" textLength="91" x="414" y="668.2808">String toString()</text><!--class Square--><rect fill="#FEFECE" filter="url(#frifsik8mknes)" height="214.4609" id="Square" style="stroke: #A80036; stroke-width: 1.5;" width="180" x="675" y="441.5"/><ellipse cx="738.25" cy="457.5" fill="#ADD1B2" rx="11" ry="11" style="stroke: #A80036; stroke-width: 1.0;"/><path d="M741.2188,463.1406 Q740.6406,463.4375 740,463.5859 Q739.3594,463.7344 738.6563,463.7344 Q736.1563,463.7344 734.8359,462.0859 Q733.5156,460.4375 733.5156,457.3125 Q733.5156,454.1875 734.8359,452.5313 Q736.1563,450.875 738.6563,450.875 Q739.3594,450.875 740.0078,451.0313 Q740.6563,451.1875 741.2188,451.4844 L741.2188,454.2031 Q740.5938,453.625 740,453.3516 Q739.4063,453.0781 738.7813,453.0781 Q737.4375,453.0781 736.75,454.1484 Q736.0625,455.2188 736.0625,457.3125 Q736.0625,459.4063 736.75,460.4766 Q737.4375,461.5469 738.7813,461.5469 Q739.4063,461.5469 740,461.2734 Q740.5938,461 741.2188,460.4219 L741.2188,463.1406 Z "/><text fill="#000000" font-family="sans-serif" font-size="12" lengthAdjust="spacingAndGlyphs" textLength="45" x="758.75" y="461.6543">Square</text><line style="stroke: #A80036; stroke-width: 1.5;" x1="676" x2="854" y1="473.5" y2="473.5"/><rect fill="none" height="6" style="stroke: #C82930; stroke-width: 1.0;" width="6" x="683" y="481.5"/><text fill="#000000" font-family="sans-serif" font-size="11" lengthAdjust="spacingAndGlyphs" textLength="64" x="695" y="487.7104">double size</text><line style="stroke: #A80036; stroke-width: 1.5;" x1="676" x2="854" y1="494.3047" y2="494.3047"/><ellipse cx="686" cy="505.3047" fill="#84BE84" rx="3" ry="3" style="stroke: #038048; stroke-width: 1.0;"/><text fill="#000000" font-family="sans-serif" font-size="11" lengthAdjust="spacingAndGlyphs" textLength="49" x="695" y="508.5151">Square()</text><ellipse cx="686" cy="518.1094" fill="#84BE84" rx="3" ry="3" style="stroke: #038048; stroke-width: 1.0;"/><text fill="#000000" font-family="sans-serif" font-size="11" lengthAdjust="spacingAndGlyphs" textLength="113" x="695" y="521.3198">Square(double size)</text><text fill="#000000" font-family="sans-serif" font-size="11" lengthAdjust="spacingAndGlyphs" textLength="0" x="699" y="534.1245"/><ellipse cx="686" cy="543.7188" fill="#84BE84" rx="3" ry="3" style="stroke: #038048; stroke-width: 1.0;"/><text fill="#000000" font-family="sans-serif" font-size="11" lengthAdjust="spacingAndGlyphs" textLength="49" x="695" y="546.9292">getSize()</text><ellipse cx="686" cy="556.5234" fill="#84BE84" rx="3" ry="3" style="stroke: #038048; stroke-width: 1.0;"/><text fill="#000000" font-family="sans-serif" font-size="11" lengthAdjust="spacingAndGlyphs" textLength="113" x="695" y="559.7339">setSize(double size)</text><text fill="#000000" font-family="sans-serif" font-size="11" lengthAdjust="spacingAndGlyphs" textLength="0" x="699" y="572.5386"/><ellipse cx="686" cy="582.1328" fill="#84BE84" rx="3" ry="3" style="stroke: #038048; stroke-width: 1.0;"/><text fill="#000000" font-family="sans-serif" font-size="11" lengthAdjust="spacingAndGlyphs" textLength="63" x="695" y="585.3433">void draw()</text><ellipse cx="686" cy="594.9375" fill="#84BE84" rx="3" ry="3" style="stroke: #038048; stroke-width: 1.0;"/><text fill="#000000" font-family="sans-serif" font-size="11" lengthAdjust="spacingAndGlyphs" textLength="68" x="695" y="598.1479">void erase()</text><ellipse cx="686" cy="607.7422" fill="#84BE84" rx="3" ry="3" style="stroke: #038048; stroke-width: 1.0;"/><text fill="#000000" font-family="sans-serif" font-size="11" lengthAdjust="spacingAndGlyphs" textLength="94" x="695" y="610.9526">double getArea()</text><ellipse cx="686" cy="620.5469" fill="#84BE84" rx="3" ry="3" style="stroke: #038048; stroke-width: 1.0;"/><text fill="#000000" font-family="sans-serif" font-size="11" lengthAdjust="spacingAndGlyphs" textLength="124" x="695" y="623.7573">double getPerimeter()</text><ellipse cx="686" cy="633.3516" fill="#84BE84" rx="3" ry="3" style="stroke: #038048; stroke-width: 1.0;"/><text fill="#000000" font-family="sans-serif" font-size="11" lengthAdjust="spacingAndGlyphs" textLength="154" x="695" y="636.562">void resize(double percent)</text><ellipse cx="686" cy="646.1563" fill="#84BE84" rx="3" ry="3" style="stroke: #038048; stroke-width: 1.0;"/><text fill="#000000" font-family="sans-serif" font-size="11" lengthAdjust="spacingAndGlyphs" textLength="91" x="695" y="649.3667">String toString()</text><!--class Triangle--><rect fill="#FEFECE" filter="url(#frifsik8mknes)" height="291.2891" id="Triangle" style="stroke: #A80036; stroke-width: 1.5;" width="242" x="890" y="403"/><ellipse cx="981.75" cy="419" fill="#ADD1B2" rx="11" ry="11" style="stroke: #A80036; stroke-width: 1.0;"/><path d="M984.7188,424.6406 Q984.1406,424.9375 983.5,425.0859 Q982.8594,425.2344 982.1563,425.2344 Q979.6563,425.2344 978.3359,423.5859 Q977.0156,421.9375 977.0156,418.8125 Q977.0156,415.6875 978.3359,414.0313 Q979.6563,412.375 982.1563,412.375 Q982.8594,412.375 983.5078,412.5313 Q984.1563,412.6875 984.7188,412.9844 L984.7188,415.7031 Q984.0938,415.125 983.5,414.8516 Q982.9063,414.5781 982.2813,414.5781 Q980.9375,414.5781 980.25,415.6484 Q979.5625,416.7188 979.5625,418.8125 Q979.5625,420.9063 980.25,421.9766 Q980.9375,423.0469 982.2813,423.0469 Q982.9063,423.0469 983.5,422.7734 Q984.0938,422.5 984.7188,421.9219 L984.7188,424.6406 Z "/><text fill="#000000" font-family="sans-serif" font-size="12" lengthAdjust="spacingAndGlyphs" textLength="50" x="1002.25" y="423.1543">Triangle</text><line style="stroke: #A80036; stroke-width: 1.5;" x1="891" x2="1131" y1="435" y2="435"/><rect fill="none" height="6" style="stroke: #C82930; stroke-width: 1.0;" width="6" x="898" y="443"/><text fill="#000000" font-family="sans-serif" font-size="11" lengthAdjust="spacingAndGlyphs" textLength="49" x="910" y="449.2104">double a</text><rect fill="none" height="6" style="stroke: #C82930; stroke-width: 1.0;" width="6" x="898" y="455.8047"/><text fill="#000000" font-family="sans-serif" font-size="11" lengthAdjust="spacingAndGlyphs" textLength="49" x="910" y="462.0151">double b</text><rect fill="none" height="6" style="stroke: #C82930; stroke-width: 1.0;" width="6" x="898" y="468.6094"/><text fill="#000000" font-family="sans-serif" font-size="11" lengthAdjust="spacingAndGlyphs" textLength="48" x="910" y="474.8198">double c</text><line style="stroke: #A80036; stroke-width: 1.5;" x1="891" x2="1131" y1="481.4141" y2="481.4141"/><ellipse cx="901" cy="492.4141" fill="#84BE84" rx="3" ry="3" style="stroke: #038048; stroke-width: 1.0;"/><text fill="#000000" font-family="sans-serif" font-size="11" lengthAdjust="spacingAndGlyphs" textLength="54" x="910" y="495.6245">Triangle()</text><ellipse cx="901" cy="505.2188" fill="#84BE84" rx="3" ry="3" style="stroke: #038048; stroke-width: 1.0;"/><text fill="#000000" font-family="sans-serif" font-size="11" lengthAdjust="spacingAndGlyphs" textLength="216" x="910" y="508.4292">Triangle(double a, double b, double c)</text><text fill="#000000" font-family="sans-serif" font-size="11" lengthAdjust="spacingAndGlyphs" textLength="0" x="914" y="521.2339"/><ellipse cx="901" cy="530.8281" fill="#84BE84" rx="3" ry="3" style="stroke: #038048; stroke-width: 1.0;"/><text fill="#000000" font-family="sans-serif" font-size="11" lengthAdjust="spacingAndGlyphs" textLength="75" x="910" y="534.0386">double getA()</text><ellipse cx="901" cy="543.6328" fill="#84BE84" rx="3" ry="3" style="stroke: #038048; stroke-width: 1.0;"/><text fill="#000000" font-family="sans-serif" font-size="11" lengthAdjust="spacingAndGlyphs" textLength="109" x="910" y="546.8433">void setA(double a)</text><ellipse cx="901" cy="556.4375" fill="#84BE84" rx="3" ry="3" style="stroke: #038048; stroke-width: 1.0;"/><text fill="#000000" font-family="sans-serif" font-size="11" lengthAdjust="spacingAndGlyphs" textLength="76" x="910" y="559.6479">double getB()</text><ellipse cx="901" cy="569.2422" fill="#84BE84" rx="3" ry="3" style="stroke: #038048; stroke-width: 1.0;"/><text fill="#000000" font-family="sans-serif" font-size="11" lengthAdjust="spacingAndGlyphs" textLength="110" x="910" y="572.4526">void setB(double b)</text><ellipse cx="901" cy="582.0469" fill="#84BE84" rx="3" ry="3" style="stroke: #038048; stroke-width: 1.0;"/><text fill="#000000" font-family="sans-serif" font-size="11" lengthAdjust="spacingAndGlyphs" textLength="76" x="910" y="585.2573">double getC()</text><ellipse cx="901" cy="594.8516" fill="#84BE84" rx="3" ry="3" style="stroke: #038048; stroke-width: 1.0;"/><text fill="#000000" font-family="sans-serif" font-size="11" lengthAdjust="spacingAndGlyphs" textLength="109" x="910" y="598.062">void setC(double c)</text><text fill="#000000" font-family="sans-serif" font-size="11" lengthAdjust="spacingAndGlyphs" textLength="0" x="914" y="610.8667"/><ellipse cx="901" cy="620.4609" fill="#84BE84" rx="3" ry="3" style="stroke: #038048; stroke-width: 1.0;"/><text fill="#000000" font-family="sans-serif" font-size="11" lengthAdjust="spacingAndGlyphs" textLength="63" x="910" y="623.6714">void draw()</text><ellipse cx="901" cy="633.2656" fill="#84BE84" rx="3" ry="3" style="stroke: #038048; stroke-width: 1.0;"/><text fill="#000000" font-family="sans-serif" font-size="11" lengthAdjust="spacingAndGlyphs" textLength="68" x="910" y="636.4761">void erase()</text><ellipse cx="901" cy="646.0703" fill="#84BE84" rx="3" ry="3" style="stroke: #038048; stroke-width: 1.0;"/><text fill="#000000" font-family="sans-serif" font-size="11" lengthAdjust="spacingAndGlyphs" textLength="94" x="910" y="649.2808">double getArea()</text><ellipse cx="901" cy="658.875" fill="#84BE84" rx="3" ry="3" style="stroke: #038048; stroke-width: 1.0;"/><text fill="#000000" font-family="sans-serif" font-size="11" lengthAdjust="spacingAndGlyphs" textLength="124" x="910" y="662.0854">double getPerimeter()</text><ellipse cx="901" cy="671.6797" fill="#84BE84" rx="3" ry="3" style="stroke: #038048; stroke-width: 1.0;"/><text fill="#000000" font-family="sans-serif" font-size="11" lengthAdjust="spacingAndGlyphs" textLength="154" x="910" y="674.8901">void resize(double percent)</text><ellipse cx="901" cy="684.4844" fill="#84BE84" rx="3" ry="3" style="stroke: #038048; stroke-width: 1.0;"/><text fill="#000000" font-family="sans-serif" font-size="11" lengthAdjust="spacingAndGlyphs" textLength="91" x="910" y="687.6948">String toString()</text><!--reverse link Resizeable to Shape--><path d="M517,89.6019 C517,101.7297 517,115.1186 517,128.7249 " fill="none" id="Resizeable&lt;-Shape" style="stroke: #A80036; stroke-width: 1.0;"/><polygon fill="none" points="510.0001,89.3594,517,69.3594,524.0001,89.3593,510.0001,89.3594" style="stroke: #A80036; stroke-width: 1.0;"/><!--reverse link Shape to User--><path d="M402.1704,266.3486 C322.6539,292.0822 218.4835,335.7218 146,403 C115.6632,431.1582 94.4592,473.6755 81.7124,505.4885 " fill="none" id="Shape&lt;-User" style="stroke: #A80036; stroke-width: 1.0;"/><polygon fill="#A80036" points="414.7121,262.3713,407.7836,260.3722,403.2735,265.9988,410.202,267.9979,414.7121,262.3713" style="stroke: #A80036; stroke-width: 1.0;"/><!--reverse link Shape to Circle--><path d="M412.5817,358.759 C400.1817,373.606 387.7598,388.6059 376,403 C365.9163,415.3425 355.4326,428.3518 345.0805,441.3087 " fill="none" id="Shape&lt;-Circle" style="stroke: #A80036; stroke-width: 1.0;"/><polygon fill="none" points="407.259,354.2121,425.4672,343.374,417.9919,363.2013,407.259,354.2121" style="stroke: #A80036; stroke-width: 1.0;"/><!--reverse link Shape to Rectangle--><path d="M517,363.3545 C517,382.6606 517,402.5765 517,421.8672 " fill="none" id="Shape&lt;-Rectangle" style="stroke: #A80036; stroke-width: 1.0;"/><polygon fill="none" points="510.0001,363.1076,517,343.1076,524.0001,363.1075,510.0001,363.1076" style="stroke: #A80036; stroke-width: 1.0;"/><!--reverse link Shape to Square--><path d="M622.5782,359.169 C634.6677,373.824 646.6995,388.6668 658,403 C667.7066,415.3116 677.7033,428.3643 687.5065,441.3991 " fill="none" id="Shape&lt;-Square" style="stroke: #A80036; stroke-width: 1.0;"/><polygon fill="none" points="616.8554,363.2343,609.4692,343.3736,627.6285,354.2934,616.8554,363.2343" style="stroke: #A80036; stroke-width: 1.0;"/><!--reverse link Shape to Triangle--><path d="M637.9499,279.5584 C709.8713,308.5748 800.8459,350.9161 873,403 C878.6458,407.0754 884.2517,411.402 889.7895,415.9158 " fill="none" id="Shape&lt;-Triangle" style="stroke: #A80036; stroke-width: 1.0;"/><polygon fill="none" points="635.1616,285.983,619.1523,272.1013,640.3242,272.9696,635.1616,285.983" style="stroke: #A80036; stroke-width: 1.0;"/><!--
@startuml   Rezieable Geometric
interface Resizeable {
    + void resize(double percent)
}

class User {
    - Scanner sc

    + User()
    + double getInput()
}

abstract class Shape {
    # int xPos
    # int yPos
    # User user

    # Shape(int xPos, int yPos)

    + {abstract} void draw()
    + {abstract} void erase()
    + {abstract} double getArea()

    + void moveTo(int xPos, int yPos)
    + void resize(double percent)

    + String toString()
}
class Circle {
    - double raidus

    + Circle() 
    + Circle(double radius)

    + double getRadius()
    + void setRadius(double radius)

    + void draw()
    + void erase()
    + double getArea()
    + double getPerimeter()
    + void resize(double percent)
    + String toString()
}
class Rectangle {
    - double width
    - double height

    + Rectangle()
    + Rectangle(double width, double height)

    + double getWidth()
    + void setWidth(double width)
    + double getHeight()
    + void setHeight(double height)

    + void draw()
    + void erase()
    + double getArea()
    + double getPerimeter()
    + void resize(double percent)
    + String toString()
}
class Square {
    - double size

    + Square()
    + Square(double size)

    + getSize()
    + setSize(double size)

    + void draw()
    + void erase()
    + double getArea()
    + double getPerimeter()
    + void resize(double percent)
    + String toString()
}
class Triangle {
    - double a
    - double b
    - double c

    + Triangle()
    + Triangle(double a, double b, double c)

    + double getA()
    + void setA(double a)
    + double getB()
    + void setB(double b)
    + double getC()
    + void setC(double c)

    + void draw()
    + void erase()
    + double getArea()
    + double getPerimeter()
    + void resize(double percent)
    + String toString()
}

Resizeable <|- - Shape

Shape *- - User
Shape <|- - Circle
Shape <|- - Rectangle
Shape <|- - Square
Shape <|- - Triangle

@enduml

PlantUML version 1.2019.09(Mon Aug 26 23:19:51 ICT 2019)
(GPL source distribution)
Java Runtime: OpenJDK Runtime Environment
JVM: OpenJDK 64-Bit Server VM
Java Version: 1.8.0_171-8u171-b11-2-b11
Operating System: Linux
OS Version: 4.19.0-kali1-amd64
Default Encoding: UTF-8
Language: en
Country: US
--></g></svg>