<?xml version="1.0" encoding="UTF-8" standalone="no"?><svg xmlns="http://www.w3.org/2000/svg" xmlns:xlink="http://www.w3.org/1999/xlink" contentScriptType="application/ecmascript" contentStyleType="text/css" height="571px" preserveAspectRatio="none" style="width:2314px;height:571px;" version="1.1" viewBox="0 0 2314 571" width="2314px" zoomAndPan="magnify"><defs><filter height="300%" id="fq059s2z59dgn" width="300%" x="-1" y="-1"><feGaussianBlur result="blurOut" stdDeviation="2.0"/><feColorMatrix in="blurOut" result="blurOut2" type="matrix" values="0 0 0 0 0 0 0 0 0 0 0 0 0 0 0 0 0 0 .4 0"/><feOffset dx="4.0" dy="4.0" in="blurOut2" result="blurOut3"/><feBlend in="SourceGraphic" in2="blurOut3" mode="normal"/></filter></defs><g><!--class Comparator--><rect fill="#FEFECE" filter="url(#fq059s2z59dgn)" height="60.8047" id="Comparator" style="stroke: #A80036; stroke-width: 1.5;" width="180" x="489.5" y="84.5"/><ellipse cx="518" cy="100.5" fill="#B4A7E5" rx="11" ry="11" style="stroke: #A80036; stroke-width: 1.0;"/><path d="M513.9219,96.2656 L513.9219,94.1094 L521.3125,94.1094 L521.3125,96.2656 L518.8438,96.2656 L518.8438,104.3438 L521.3125,104.3438 L521.3125,106.5 L513.9219,106.5 L513.9219,104.3438 L516.3906,104.3438 L516.3906,96.2656 L513.9219,96.2656 Z "/><text fill="#000000" font-family="sans-serif" font-size="12" font-style="italic" lengthAdjust="spacingAndGlyphs" textLength="74" x="535" y="104.6543">Comparator</text><rect fill="#FFFFFF" height="15.9688" style="stroke: #000000; stroke-width: 1.0; stroke-dasharray: 2.0,2.0;" width="42" x="630.5" y="81.5"/><text fill="#000000" font-family="sans-serif" font-size="12" font-style="italic" lengthAdjust="spacingAndGlyphs" textLength="40" x="631.5" y="93.6387">Shape</text><line style="stroke: #A80036; stroke-width: 1.5;" x1="490.5" x2="668.5" y1="116.5" y2="116.5"/><line style="stroke: #A80036; stroke-width: 1.5;" x1="490.5" x2="668.5" y1="124.5" y2="124.5"/><ellipse cx="500.5" cy="135.5" fill="#84BE84" rx="3" ry="3" style="stroke: #038048; stroke-width: 1.0;"/><text fill="#000000" font-family="sans-serif" font-size="11" lengthAdjust="spacingAndGlyphs" textLength="154" x="509.5" y="138.7104">int compare(T obj1, T obj2)</text><!--class CircleComparator--><rect fill="#FEFECE" filter="url(#fq059s2z59dgn)" height="60.8047" id="CircleComparator" style="stroke: #A80036; stroke-width: 1.5;" width="237" x="6" y="390.5"/><ellipse cx="66.25" cy="406.5" fill="#ADD1B2" rx="11" ry="11" style="stroke: #A80036; stroke-width: 1.0;"/><path d="M69.2188,412.1406 Q68.6406,412.4375 68,412.5859 Q67.3594,412.7344 66.6563,412.7344 Q64.1563,412.7344 62.8359,411.0859 Q61.5156,409.4375 61.5156,406.3125 Q61.5156,403.1875 62.8359,401.5313 Q64.1563,399.875 66.6563,399.875 Q67.3594,399.875 68.0078,400.0313 Q68.6563,400.1875 69.2188,400.4844 L69.2188,403.2031 Q68.5938,402.625 68,402.3516 Q67.4063,402.0781 66.7813,402.0781 Q65.4375,402.0781 64.75,403.1484 Q64.0625,404.2188 64.0625,406.3125 Q64.0625,408.4063 64.75,409.4766 Q65.4375,410.5469 66.7813,410.5469 Q67.4063,410.5469 68,410.2734 Q68.5938,410 69.2188,409.4219 L69.2188,412.1406 Z "/><text fill="#000000" font-family="sans-serif" font-size="12" lengthAdjust="spacingAndGlyphs" textLength="108" x="86.75" y="410.6543">CircleComparator</text><line style="stroke: #A80036; stroke-width: 1.5;" x1="7" x2="242" y1="422.5" y2="422.5"/><line style="stroke: #A80036; stroke-width: 1.5;" x1="7" x2="242" y1="430.5" y2="430.5"/><ellipse cx="17" cy="441.5" fill="#84BE84" rx="3" ry="3" style="stroke: #038048; stroke-width: 1.0;"/><text fill="#000000" font-family="sans-serif" font-size="11" lengthAdjust="spacingAndGlyphs" textLength="211" x="26" y="444.7104">int comparTo(Circle obj1, Circle obj2)</text><!--class RectangleComparator--><rect fill="#FEFECE" filter="url(#fq059s2z59dgn)" height="60.8047" id="RectangleComparator" style="stroke: #A80036; stroke-width: 1.5;" width="290" x="278.5" y="390.5"/><ellipse cx="350.75" cy="406.5" fill="#ADD1B2" rx="11" ry="11" style="stroke: #A80036; stroke-width: 1.0;"/><path d="M353.7188,412.1406 Q353.1406,412.4375 352.5,412.5859 Q351.8594,412.7344 351.1563,412.7344 Q348.6563,412.7344 347.3359,411.0859 Q346.0156,409.4375 346.0156,406.3125 Q346.0156,403.1875 347.3359,401.5313 Q348.6563,399.875 351.1563,399.875 Q351.8594,399.875 352.5078,400.0313 Q353.1563,400.1875 353.7188,400.4844 L353.7188,403.2031 Q353.0938,402.625 352.5,402.3516 Q351.9063,402.0781 351.2813,402.0781 Q349.9375,402.0781 349.25,403.1484 Q348.5625,404.2188 348.5625,406.3125 Q348.5625,408.4063 349.25,409.4766 Q349.9375,410.5469 351.2813,410.5469 Q351.9063,410.5469 352.5,410.2734 Q353.0938,410 353.7188,409.4219 L353.7188,412.1406 Z "/><text fill="#000000" font-family="sans-serif" font-size="12" lengthAdjust="spacingAndGlyphs" textLength="137" x="371.25" y="410.6543">RectangleComparator</text><line style="stroke: #A80036; stroke-width: 1.5;" x1="279.5" x2="567.5" y1="422.5" y2="422.5"/><line style="stroke: #A80036; stroke-width: 1.5;" x1="279.5" x2="567.5" y1="430.5" y2="430.5"/><ellipse cx="289.5" cy="441.5" fill="#84BE84" rx="3" ry="3" style="stroke: #038048; stroke-width: 1.0;"/><text fill="#000000" font-family="sans-serif" font-size="11" lengthAdjust="spacingAndGlyphs" textLength="264" x="298.5" y="444.7104">int compareTo(Rectangle obj1, Rectangle obj2)</text><!--class SquareComparator--><rect fill="#FEFECE" filter="url(#fq059s2z59dgn)" height="60.8047" id="SquareComparator" style="stroke: #A80036; stroke-width: 1.5;" width="262" x="603.5" y="390.5"/><ellipse cx="670.75" cy="406.5" fill="#ADD1B2" rx="11" ry="11" style="stroke: #A80036; stroke-width: 1.0;"/><path d="M673.7188,412.1406 Q673.1406,412.4375 672.5,412.5859 Q671.8594,412.7344 671.1563,412.7344 Q668.6563,412.7344 667.3359,411.0859 Q666.0156,409.4375 666.0156,406.3125 Q666.0156,403.1875 667.3359,401.5313 Q668.6563,399.875 671.1563,399.875 Q671.8594,399.875 672.5078,400.0313 Q673.1563,400.1875 673.7188,400.4844 L673.7188,403.2031 Q673.0938,402.625 672.5,402.3516 Q671.9063,402.0781 671.2813,402.0781 Q669.9375,402.0781 669.25,403.1484 Q668.5625,404.2188 668.5625,406.3125 Q668.5625,408.4063 669.25,409.4766 Q669.9375,410.5469 671.2813,410.5469 Q671.9063,410.5469 672.5,410.2734 Q673.0938,410 673.7188,409.4219 L673.7188,412.1406 Z "/><text fill="#000000" font-family="sans-serif" font-size="12" lengthAdjust="spacingAndGlyphs" textLength="119" x="691.25" y="410.6543">SquareComparator</text><line style="stroke: #A80036; stroke-width: 1.5;" x1="604.5" x2="864.5" y1="422.5" y2="422.5"/><line style="stroke: #A80036; stroke-width: 1.5;" x1="604.5" x2="864.5" y1="430.5" y2="430.5"/><ellipse cx="614.5" cy="441.5" fill="#84BE84" rx="3" ry="3" style="stroke: #038048; stroke-width: 1.0;"/><text fill="#000000" font-family="sans-serif" font-size="11" lengthAdjust="spacingAndGlyphs" textLength="236" x="623.5" y="444.7104">int compareTo(Square obj1, Square obj2)</text><!--class TriangleComparator--><rect fill="#FEFECE" filter="url(#fq059s2z59dgn)" height="60.8047" id="TriangleComparator" style="stroke: #A80036; stroke-width: 1.5;" width="272" x="900.5" y="390.5"/><ellipse cx="970.25" cy="406.5" fill="#ADD1B2" rx="11" ry="11" style="stroke: #A80036; stroke-width: 1.0;"/><path d="M973.2188,412.1406 Q972.6406,412.4375 972,412.5859 Q971.3594,412.7344 970.6563,412.7344 Q968.1563,412.7344 966.8359,411.0859 Q965.5156,409.4375 965.5156,406.3125 Q965.5156,403.1875 966.8359,401.5313 Q968.1563,399.875 970.6563,399.875 Q971.3594,399.875 972.0078,400.0313 Q972.6563,400.1875 973.2188,400.4844 L973.2188,403.2031 Q972.5938,402.625 972,402.3516 Q971.4063,402.0781 970.7813,402.0781 Q969.4375,402.0781 968.75,403.1484 Q968.0625,404.2188 968.0625,406.3125 Q968.0625,408.4063 968.75,409.4766 Q969.4375,410.5469 970.7813,410.5469 Q971.4063,410.5469 972,410.2734 Q972.5938,410 973.2188,409.4219 L973.2188,412.1406 Z "/><text fill="#000000" font-family="sans-serif" font-size="12" lengthAdjust="spacingAndGlyphs" textLength="124" x="990.75" y="410.6543">TriangleComparator</text><line style="stroke: #A80036; stroke-width: 1.5;" x1="901.5" x2="1171.5" y1="422.5" y2="422.5"/><line style="stroke: #A80036; stroke-width: 1.5;" x1="901.5" x2="1171.5" y1="430.5" y2="430.5"/><ellipse cx="911.5" cy="441.5" fill="#84BE84" rx="3" ry="3" style="stroke: #038048; stroke-width: 1.0;"/><text fill="#000000" font-family="sans-serif" font-size="11" lengthAdjust="spacingAndGlyphs" textLength="246" x="920.5" y="444.7104">int compareTo(Triangle obj1, Triangle obj2)</text><!--class User--><rect fill="#FEFECE" filter="url(#fq059s2z59dgn)" height="86.4141" id="User" style="stroke: #A80036; stroke-width: 1.5;" width="122" x="1207.5" y="378"/><ellipse cx="1249.95" cy="394" fill="#ADD1B2" rx="11" ry="11" style="stroke: #A80036; stroke-width: 1.0;"/><path d="M1252.9188,399.6406 Q1252.3406,399.9375 1251.7,400.0859 Q1251.0594,400.2344 1250.3563,400.2344 Q1247.8563,400.2344 1246.5359,398.5859 Q1245.2156,396.9375 1245.2156,393.8125 Q1245.2156,390.6875 1246.5359,389.0313 Q1247.8563,387.375 1250.3563,387.375 Q1251.0594,387.375 1251.7078,387.5313 Q1252.3563,387.6875 1252.9188,387.9844 L1252.9188,390.7031 Q1252.2938,390.125 1251.7,389.8516 Q1251.1063,389.5781 1250.4813,389.5781 Q1249.1375,389.5781 1248.45,390.6484 Q1247.7625,391.7188 1247.7625,393.8125 Q1247.7625,395.9063 1248.45,396.9766 Q1249.1375,398.0469 1250.4813,398.0469 Q1251.1063,398.0469 1251.7,397.7734 Q1252.2938,397.5 1252.9188,396.9219 L1252.9188,399.6406 Z "/><text fill="#000000" font-family="sans-serif" font-size="12" lengthAdjust="spacingAndGlyphs" textLength="29" x="1270.05" y="398.1543">User</text><line style="stroke: #A80036; stroke-width: 1.5;" x1="1208.5" x2="1328.5" y1="410" y2="410"/><rect fill="none" height="6" style="stroke: #C82930; stroke-width: 1.0;" width="6" x="1215.5" y="418"/><text fill="#000000" font-family="sans-serif" font-size="11" lengthAdjust="spacingAndGlyphs" textLength="64" x="1227.5" y="424.2104">Scanner sc</text><line style="stroke: #A80036; stroke-width: 1.5;" x1="1208.5" x2="1328.5" y1="430.8047" y2="430.8047"/><ellipse cx="1218.5" cy="441.8047" fill="#84BE84" rx="3" ry="3" style="stroke: #038048; stroke-width: 1.0;"/><text fill="#000000" font-family="sans-serif" font-size="11" lengthAdjust="spacingAndGlyphs" textLength="35" x="1227.5" y="445.0151">User()</text><ellipse cx="1218.5" cy="454.6094" fill="#84BE84" rx="3" ry="3" style="stroke: #038048; stroke-width: 1.0;"/><text fill="#000000" font-family="sans-serif" font-size="11" lengthAdjust="spacingAndGlyphs" textLength="96" x="1227.5" y="457.8198">double getInput()</text><!--class Shape--><rect fill="#FEFECE" filter="url(#fq059s2z59dgn)" height="214.4609" id="Shape" style="stroke: #A80036; stroke-width: 1.5;" width="204" x="1616.5" y="8"/><ellipse cx="1694.25" cy="24" fill="#A9DCDF" rx="11" ry="11" style="stroke: #A80036; stroke-width: 1.0;"/><path d="M1694.3594,19.3438 L1693.2031,24.4219 L1695.5313,24.4219 L1694.3594,19.3438 Z M1692.875,17.1094 L1695.8594,17.1094 L1699.2188,29.5 L1696.7656,29.5 L1696,26.4375 L1692.7188,26.4375 L1691.9688,29.5 L1689.5313,29.5 L1692.875,17.1094 Z "/><text fill="#000000" font-family="sans-serif" font-size="12" font-style="italic" lengthAdjust="spacingAndGlyphs" textLength="40" x="1714.75" y="28.1543">Shape</text><line style="stroke: #A80036; stroke-width: 1.5;" x1="1617.5" x2="1819.5" y1="40" y2="40"/><polygon fill="none" points="1627.5,46,1631.5,50,1627.5,54,1623.5,50" style="stroke: #B38D22; stroke-width: 1.0;"/><text fill="#000000" font-family="sans-serif" font-size="11" lengthAdjust="spacingAndGlyphs" textLength="45" x="1636.5" y="54.2104">int xPos</text><polygon fill="none" points="1627.5,58.8047,1631.5,62.8047,1627.5,66.8047,1623.5,62.8047" style="stroke: #B38D22; stroke-width: 1.0;"/><text fill="#000000" font-family="sans-serif" font-size="11" lengthAdjust="spacingAndGlyphs" textLength="45" x="1636.5" y="67.0151">int yPos</text><polygon fill="none" points="1627.5,71.6094,1631.5,75.6094,1627.5,79.6094,1623.5,75.6094" style="stroke: #B38D22; stroke-width: 1.0;"/><text fill="#000000" font-family="sans-serif" font-size="11" lengthAdjust="spacingAndGlyphs" textLength="57" x="1636.5" y="79.8198">User user</text><line style="stroke: #A80036; stroke-width: 1.5;" x1="1617.5" x2="1819.5" y1="86.4141" y2="86.4141"/><polygon fill="#FFFF44" points="1627.5,92.4141,1631.5,96.4141,1627.5,100.4141,1623.5,96.4141" style="stroke: #B38D22; stroke-width: 1.0;"/><text fill="#000000" font-family="sans-serif" font-size="11" lengthAdjust="spacingAndGlyphs" textLength="142" x="1636.5" y="100.6245">Shape(int xPos, int yPos)</text><text fill="#000000" font-family="sans-serif" font-size="11" lengthAdjust="spacingAndGlyphs" textLength="0" x="1640.5" y="113.4292"/><ellipse cx="1627.5" cy="123.0234" fill="#84BE84" rx="3" ry="3" style="stroke: #038048; stroke-width: 1.0;"/><text fill="#000000" font-family="sans-serif" font-size="11" font-style="italic" lengthAdjust="spacingAndGlyphs" textLength="64" x="1636.5" y="126.2339">void draw()</text><ellipse cx="1627.5" cy="135.8281" fill="#84BE84" rx="3" ry="3" style="stroke: #038048; stroke-width: 1.0;"/><text fill="#000000" font-family="sans-serif" font-size="11" font-style="italic" lengthAdjust="spacingAndGlyphs" textLength="68" x="1636.5" y="139.0386">void erase()</text><ellipse cx="1627.5" cy="148.6328" fill="#84BE84" rx="3" ry="3" style="stroke: #038048; stroke-width: 1.0;"/><text fill="#000000" font-family="sans-serif" font-size="11" font-style="italic" lengthAdjust="spacingAndGlyphs" textLength="95" x="1636.5" y="151.8433">double getArea()</text><text fill="#000000" font-family="sans-serif" font-size="11" lengthAdjust="spacingAndGlyphs" textLength="0" x="1640.5" y="164.6479"/><ellipse cx="1627.5" cy="174.2422" fill="#84BE84" rx="3" ry="3" style="stroke: #038048; stroke-width: 1.0;"/><text fill="#000000" font-family="sans-serif" font-size="11" lengthAdjust="spacingAndGlyphs" textLength="178" x="1636.5" y="177.4526">void moveTo(int xPos, int yPos)</text><ellipse cx="1627.5" cy="187.0469" fill="#84BE84" rx="3" ry="3" style="stroke: #038048; stroke-width: 1.0;"/><text fill="#000000" font-family="sans-serif" font-size="11" lengthAdjust="spacingAndGlyphs" textLength="165" x="1636.5" y="190.2573">int compareTo(Shape shape)</text><text fill="#000000" font-family="sans-serif" font-size="11" lengthAdjust="spacingAndGlyphs" textLength="0" x="1640.5" y="203.062"/><ellipse cx="1627.5" cy="212.6563" fill="#84BE84" rx="3" ry="3" style="stroke: #038048; stroke-width: 1.0;"/><text fill="#000000" font-family="sans-serif" font-size="11" lengthAdjust="spacingAndGlyphs" textLength="91" x="1636.5" y="215.8667">String toString()</text><!--class Circle--><rect fill="#FEFECE" filter="url(#fq059s2z59dgn)" height="201.6563" id="Circle" style="stroke: #A80036; stroke-width: 1.5;" width="195" x="1365" y="320"/><ellipse cx="1441.25" cy="336" fill="#ADD1B2" rx="11" ry="11" style="stroke: #A80036; stroke-width: 1.0;"/><path d="M1444.2188,341.6406 Q1443.6406,341.9375 1443,342.0859 Q1442.3594,342.2344 1441.6563,342.2344 Q1439.1563,342.2344 1437.8359,340.5859 Q1436.5156,338.9375 1436.5156,335.8125 Q1436.5156,332.6875 1437.8359,331.0313 Q1439.1563,329.375 1441.6563,329.375 Q1442.3594,329.375 1443.0078,329.5313 Q1443.6563,329.6875 1444.2188,329.9844 L1444.2188,332.7031 Q1443.5938,332.125 1443,331.8516 Q1442.4063,331.5781 1441.7813,331.5781 Q1440.4375,331.5781 1439.75,332.6484 Q1439.0625,333.7188 1439.0625,335.8125 Q1439.0625,337.9063 1439.75,338.9766 Q1440.4375,340.0469 1441.7813,340.0469 Q1442.4063,340.0469 1443,339.7734 Q1443.5938,339.5 1444.2188,338.9219 L1444.2188,341.6406 Z "/><text fill="#000000" font-family="sans-serif" font-size="12" lengthAdjust="spacingAndGlyphs" textLength="34" x="1461.75" y="340.1543">Circle</text><line style="stroke: #A80036; stroke-width: 1.5;" x1="1366" x2="1559" y1="352" y2="352"/><rect fill="none" height="6" style="stroke: #C82930; stroke-width: 1.0;" width="6" x="1373" y="360"/><text fill="#000000" font-family="sans-serif" font-size="11" lengthAdjust="spacingAndGlyphs" textLength="78" x="1385" y="366.2104">double raidus</text><line style="stroke: #A80036; stroke-width: 1.5;" x1="1366" x2="1559" y1="372.8047" y2="372.8047"/><ellipse cx="1376" cy="383.8047" fill="#84BE84" rx="3" ry="3" style="stroke: #038048; stroke-width: 1.0;"/><text fill="#000000" font-family="sans-serif" font-size="11" lengthAdjust="spacingAndGlyphs" textLength="40" x="1385" y="387.0151">Circle()</text><ellipse cx="1376" cy="396.6094" fill="#84BE84" rx="3" ry="3" style="stroke: #038048; stroke-width: 1.0;"/><text fill="#000000" font-family="sans-serif" font-size="11" lengthAdjust="spacingAndGlyphs" textLength="118" x="1385" y="399.8198">Circle(double radius)</text><text fill="#000000" font-family="sans-serif" font-size="11" lengthAdjust="spacingAndGlyphs" textLength="0" x="1389" y="412.6245"/><ellipse cx="1376" cy="422.2188" fill="#84BE84" rx="3" ry="3" style="stroke: #038048; stroke-width: 1.0;"/><text fill="#000000" font-family="sans-serif" font-size="11" lengthAdjust="spacingAndGlyphs" textLength="106" x="1385" y="425.4292">double getRadius()</text><ellipse cx="1376" cy="435.0234" fill="#84BE84" rx="3" ry="3" style="stroke: #038048; stroke-width: 1.0;"/><text fill="#000000" font-family="sans-serif" font-size="11" lengthAdjust="spacingAndGlyphs" textLength="169" x="1385" y="438.2339">void setRadius(double radius)</text><text fill="#000000" font-family="sans-serif" font-size="11" lengthAdjust="spacingAndGlyphs" textLength="0" x="1389" y="451.0386"/><ellipse cx="1376" cy="460.6328" fill="#84BE84" rx="3" ry="3" style="stroke: #038048; stroke-width: 1.0;"/><text fill="#000000" font-family="sans-serif" font-size="11" lengthAdjust="spacingAndGlyphs" textLength="63" x="1385" y="463.8433">void draw()</text><ellipse cx="1376" cy="473.4375" fill="#84BE84" rx="3" ry="3" style="stroke: #038048; stroke-width: 1.0;"/><text fill="#000000" font-family="sans-serif" font-size="11" lengthAdjust="spacingAndGlyphs" textLength="68" x="1385" y="476.6479">void erase()</text><ellipse cx="1376" cy="486.2422" fill="#84BE84" rx="3" ry="3" style="stroke: #038048; stroke-width: 1.0;"/><text fill="#000000" font-family="sans-serif" font-size="11" lengthAdjust="spacingAndGlyphs" textLength="94" x="1385" y="489.4526">double getArea()</text><ellipse cx="1376" cy="499.0469" fill="#84BE84" rx="3" ry="3" style="stroke: #038048; stroke-width: 1.0;"/><text fill="#000000" font-family="sans-serif" font-size="11" lengthAdjust="spacingAndGlyphs" textLength="124" x="1385" y="502.2573">double getPerimeter()</text><ellipse cx="1376" cy="511.8516" fill="#84BE84" rx="3" ry="3" style="stroke: #038048; stroke-width: 1.0;"/><text fill="#000000" font-family="sans-serif" font-size="11" lengthAdjust="spacingAndGlyphs" textLength="91" x="1385" y="515.062">String toString()</text><!--class Rectangle--><rect fill="#FEFECE" filter="url(#fq059s2z59dgn)" height="240.0703" id="Rectangle" style="stroke: #A80036; stroke-width: 1.5;" width="246" x="1595.5" y="301"/><ellipse cx="1682.75" cy="317" fill="#ADD1B2" rx="11" ry="11" style="stroke: #A80036; stroke-width: 1.0;"/><path d="M1685.7188,322.6406 Q1685.1406,322.9375 1684.5,323.0859 Q1683.8594,323.2344 1683.1563,323.2344 Q1680.6563,323.2344 1679.3359,321.5859 Q1678.0156,319.9375 1678.0156,316.8125 Q1678.0156,313.6875 1679.3359,312.0313 Q1680.6563,310.375 1683.1563,310.375 Q1683.8594,310.375 1684.5078,310.5313 Q1685.1563,310.6875 1685.7188,310.9844 L1685.7188,313.7031 Q1685.0938,313.125 1684.5,312.8516 Q1683.9063,312.5781 1683.2813,312.5781 Q1681.9375,312.5781 1681.25,313.6484 Q1680.5625,314.7188 1680.5625,316.8125 Q1680.5625,318.9063 1681.25,319.9766 Q1681.9375,321.0469 1683.2813,321.0469 Q1683.9063,321.0469 1684.5,320.7734 Q1685.0938,320.5 1685.7188,319.9219 L1685.7188,322.6406 Z "/><text fill="#000000" font-family="sans-serif" font-size="12" lengthAdjust="spacingAndGlyphs" textLength="63" x="1703.25" y="321.1543">Rectangle</text><line style="stroke: #A80036; stroke-width: 1.5;" x1="1596.5" x2="1840.5" y1="333" y2="333"/><rect fill="none" height="6" style="stroke: #C82930; stroke-width: 1.0;" width="6" x="1603.5" y="341"/><text fill="#000000" font-family="sans-serif" font-size="11" lengthAdjust="spacingAndGlyphs" textLength="72" x="1615.5" y="347.2104">double width</text><rect fill="none" height="6" style="stroke: #C82930; stroke-width: 1.0;" width="6" x="1603.5" y="353.8047"/><text fill="#000000" font-family="sans-serif" font-size="11" lengthAdjust="spacingAndGlyphs" textLength="77" x="1615.5" y="360.0151">double height</text><line style="stroke: #A80036; stroke-width: 1.5;" x1="1596.5" x2="1840.5" y1="366.6094" y2="366.6094"/><ellipse cx="1606.5" cy="377.6094" fill="#84BE84" rx="3" ry="3" style="stroke: #038048; stroke-width: 1.0;"/><text fill="#000000" font-family="sans-serif" font-size="11" lengthAdjust="spacingAndGlyphs" textLength="63" x="1615.5" y="380.8198">Rectangle()</text><ellipse cx="1606.5" cy="390.4141" fill="#84BE84" rx="3" ry="3" style="stroke: #038048; stroke-width: 1.0;"/><text fill="#000000" font-family="sans-serif" font-size="11" lengthAdjust="spacingAndGlyphs" textLength="220" x="1615.5" y="393.6245">Rectangle(double width, double height)</text><text fill="#000000" font-family="sans-serif" font-size="11" lengthAdjust="spacingAndGlyphs" textLength="0" x="1619.5" y="406.4292"/><ellipse cx="1606.5" cy="416.0234" fill="#84BE84" rx="3" ry="3" style="stroke: #038048; stroke-width: 1.0;"/><text fill="#000000" font-family="sans-serif" font-size="11" lengthAdjust="spacingAndGlyphs" textLength="98" x="1615.5" y="419.2339">double getWidth()</text><ellipse cx="1606.5" cy="428.8281" fill="#84BE84" rx="3" ry="3" style="stroke: #038048; stroke-width: 1.0;"/><text fill="#000000" font-family="sans-serif" font-size="11" lengthAdjust="spacingAndGlyphs" textLength="155" x="1615.5" y="432.0386">void setWidth(double width)</text><ellipse cx="1606.5" cy="441.6328" fill="#84BE84" rx="3" ry="3" style="stroke: #038048; stroke-width: 1.0;"/><text fill="#000000" font-family="sans-serif" font-size="11" lengthAdjust="spacingAndGlyphs" textLength="104" x="1615.5" y="444.8433">double getHeight()</text><ellipse cx="1606.5" cy="454.4375" fill="#84BE84" rx="3" ry="3" style="stroke: #038048; stroke-width: 1.0;"/><text fill="#000000" font-family="sans-serif" font-size="11" lengthAdjust="spacingAndGlyphs" textLength="166" x="1615.5" y="457.6479">void setHeight(double height)</text><text fill="#000000" font-family="sans-serif" font-size="11" lengthAdjust="spacingAndGlyphs" textLength="0" x="1619.5" y="470.4526"/><ellipse cx="1606.5" cy="480.0469" fill="#84BE84" rx="3" ry="3" style="stroke: #038048; stroke-width: 1.0;"/><text fill="#000000" font-family="sans-serif" font-size="11" lengthAdjust="spacingAndGlyphs" textLength="63" x="1615.5" y="483.2573">void draw()</text><ellipse cx="1606.5" cy="492.8516" fill="#84BE84" rx="3" ry="3" style="stroke: #038048; stroke-width: 1.0;"/><text fill="#000000" font-family="sans-serif" font-size="11" lengthAdjust="spacingAndGlyphs" textLength="68" x="1615.5" y="496.062">void erase()</text><ellipse cx="1606.5" cy="505.6563" fill="#84BE84" rx="3" ry="3" style="stroke: #038048; stroke-width: 1.0;"/><text fill="#000000" font-family="sans-serif" font-size="11" lengthAdjust="spacingAndGlyphs" textLength="94" x="1615.5" y="508.8667">double getArea()</text><ellipse cx="1606.5" cy="518.4609" fill="#84BE84" rx="3" ry="3" style="stroke: #038048; stroke-width: 1.0;"/><text fill="#000000" font-family="sans-serif" font-size="11" lengthAdjust="spacingAndGlyphs" textLength="124" x="1615.5" y="521.6714">double getPerimeter()</text><ellipse cx="1606.5" cy="531.2656" fill="#84BE84" rx="3" ry="3" style="stroke: #038048; stroke-width: 1.0;"/><text fill="#000000" font-family="sans-serif" font-size="11" lengthAdjust="spacingAndGlyphs" textLength="91" x="1615.5" y="534.4761">String toString()</text><!--class Square--><rect fill="#FEFECE" filter="url(#fq059s2z59dgn)" height="201.6563" id="Square" style="stroke: #A80036; stroke-width: 1.5;" width="150" x="1876.5" y="320"/><ellipse cx="1924.75" cy="336" fill="#ADD1B2" rx="11" ry="11" style="stroke: #A80036; stroke-width: 1.0;"/><path d="M1927.7188,341.6406 Q1927.1406,341.9375 1926.5,342.0859 Q1925.8594,342.2344 1925.1563,342.2344 Q1922.6563,342.2344 1921.3359,340.5859 Q1920.0156,338.9375 1920.0156,335.8125 Q1920.0156,332.6875 1921.3359,331.0313 Q1922.6563,329.375 1925.1563,329.375 Q1925.8594,329.375 1926.5078,329.5313 Q1927.1563,329.6875 1927.7188,329.9844 L1927.7188,332.7031 Q1927.0938,332.125 1926.5,331.8516 Q1925.9063,331.5781 1925.2813,331.5781 Q1923.9375,331.5781 1923.25,332.6484 Q1922.5625,333.7188 1922.5625,335.8125 Q1922.5625,337.9063 1923.25,338.9766 Q1923.9375,340.0469 1925.2813,340.0469 Q1925.9063,340.0469 1926.5,339.7734 Q1927.0938,339.5 1927.7188,338.9219 L1927.7188,341.6406 Z "/><text fill="#000000" font-family="sans-serif" font-size="12" lengthAdjust="spacingAndGlyphs" textLength="45" x="1945.25" y="340.1543">Square</text><line style="stroke: #A80036; stroke-width: 1.5;" x1="1877.5" x2="2025.5" y1="352" y2="352"/><rect fill="none" height="6" style="stroke: #C82930; stroke-width: 1.0;" width="6" x="1884.5" y="360"/><text fill="#000000" font-family="sans-serif" font-size="11" lengthAdjust="spacingAndGlyphs" textLength="64" x="1896.5" y="366.2104">double size</text><line style="stroke: #A80036; stroke-width: 1.5;" x1="1877.5" x2="2025.5" y1="372.8047" y2="372.8047"/><ellipse cx="1887.5" cy="383.8047" fill="#84BE84" rx="3" ry="3" style="stroke: #038048; stroke-width: 1.0;"/><text fill="#000000" font-family="sans-serif" font-size="11" lengthAdjust="spacingAndGlyphs" textLength="49" x="1896.5" y="387.0151">Square()</text><ellipse cx="1887.5" cy="396.6094" fill="#84BE84" rx="3" ry="3" style="stroke: #038048; stroke-width: 1.0;"/><text fill="#000000" font-family="sans-serif" font-size="11" lengthAdjust="spacingAndGlyphs" textLength="113" x="1896.5" y="399.8198">Square(double size)</text><text fill="#000000" font-family="sans-serif" font-size="11" lengthAdjust="spacingAndGlyphs" textLength="0" x="1900.5" y="412.6245"/><ellipse cx="1887.5" cy="422.2188" fill="#84BE84" rx="3" ry="3" style="stroke: #038048; stroke-width: 1.0;"/><text fill="#000000" font-family="sans-serif" font-size="11" lengthAdjust="spacingAndGlyphs" textLength="49" x="1896.5" y="425.4292">getSize()</text><ellipse cx="1887.5" cy="435.0234" fill="#84BE84" rx="3" ry="3" style="stroke: #038048; stroke-width: 1.0;"/><text fill="#000000" font-family="sans-serif" font-size="11" lengthAdjust="spacingAndGlyphs" textLength="113" x="1896.5" y="438.2339">setSize(double size)</text><text fill="#000000" font-family="sans-serif" font-size="11" lengthAdjust="spacingAndGlyphs" textLength="0" x="1900.5" y="451.0386"/><ellipse cx="1887.5" cy="460.6328" fill="#84BE84" rx="3" ry="3" style="stroke: #038048; stroke-width: 1.0;"/><text fill="#000000" font-family="sans-serif" font-size="11" lengthAdjust="spacingAndGlyphs" textLength="63" x="1896.5" y="463.8433">void draw()</text><ellipse cx="1887.5" cy="473.4375" fill="#84BE84" rx="3" ry="3" style="stroke: #038048; stroke-width: 1.0;"/><text fill="#000000" font-family="sans-serif" font-size="11" lengthAdjust="spacingAndGlyphs" textLength="68" x="1896.5" y="476.6479">void erase()</text><ellipse cx="1887.5" cy="486.2422" fill="#84BE84" rx="3" ry="3" style="stroke: #038048; stroke-width: 1.0;"/><text fill="#000000" font-family="sans-serif" font-size="11" lengthAdjust="spacingAndGlyphs" textLength="94" x="1896.5" y="489.4526">double getArea()</text><ellipse cx="1887.5" cy="499.0469" fill="#84BE84" rx="3" ry="3" style="stroke: #038048; stroke-width: 1.0;"/><text fill="#000000" font-family="sans-serif" font-size="11" lengthAdjust="spacingAndGlyphs" textLength="124" x="1896.5" y="502.2573">double getPerimeter()</text><ellipse cx="1887.5" cy="511.8516" fill="#84BE84" rx="3" ry="3" style="stroke: #038048; stroke-width: 1.0;"/><text fill="#000000" font-family="sans-serif" font-size="11" lengthAdjust="spacingAndGlyphs" textLength="91" x="1896.5" y="515.062">String toString()</text><!--class Triangle--><rect fill="#FEFECE" filter="url(#fq059s2z59dgn)" height="278.4844" id="Triangle" style="stroke: #A80036; stroke-width: 1.5;" width="242" x="2061.5" y="282"/><ellipse cx="2153.25" cy="298" fill="#ADD1B2" rx="11" ry="11" style="stroke: #A80036; stroke-width: 1.0;"/><path d="M2156.2188,303.6406 Q2155.6406,303.9375 2155,304.0859 Q2154.3594,304.2344 2153.6563,304.2344 Q2151.1563,304.2344 2149.8359,302.5859 Q2148.5156,300.9375 2148.5156,297.8125 Q2148.5156,294.6875 2149.8359,293.0313 Q2151.1563,291.375 2153.6563,291.375 Q2154.3594,291.375 2155.0078,291.5313 Q2155.6563,291.6875 2156.2188,291.9844 L2156.2188,294.7031 Q2155.5938,294.125 2155,293.8516 Q2154.4063,293.5781 2153.7813,293.5781 Q2152.4375,293.5781 2151.75,294.6484 Q2151.0625,295.7188 2151.0625,297.8125 Q2151.0625,299.9063 2151.75,300.9766 Q2152.4375,302.0469 2153.7813,302.0469 Q2154.4063,302.0469 2155,301.7734 Q2155.5938,301.5 2156.2188,300.9219 L2156.2188,303.6406 Z "/><text fill="#000000" font-family="sans-serif" font-size="12" lengthAdjust="spacingAndGlyphs" textLength="50" x="2173.75" y="302.1543">Triangle</text><line style="stroke: #A80036; stroke-width: 1.5;" x1="2062.5" x2="2302.5" y1="314" y2="314"/><rect fill="none" height="6" style="stroke: #C82930; stroke-width: 1.0;" width="6" x="2069.5" y="322"/><text fill="#000000" font-family="sans-serif" font-size="11" lengthAdjust="spacingAndGlyphs" textLength="49" x="2081.5" y="328.2104">double a</text><rect fill="none" height="6" style="stroke: #C82930; stroke-width: 1.0;" width="6" x="2069.5" y="334.8047"/><text fill="#000000" font-family="sans-serif" font-size="11" lengthAdjust="spacingAndGlyphs" textLength="49" x="2081.5" y="341.0151">double b</text><rect fill="none" height="6" style="stroke: #C82930; stroke-width: 1.0;" width="6" x="2069.5" y="347.6094"/><text fill="#000000" font-family="sans-serif" font-size="11" lengthAdjust="spacingAndGlyphs" textLength="48" x="2081.5" y="353.8198">double c</text><line style="stroke: #A80036; stroke-width: 1.5;" x1="2062.5" x2="2302.5" y1="360.4141" y2="360.4141"/><ellipse cx="2072.5" cy="371.4141" fill="#84BE84" rx="3" ry="3" style="stroke: #038048; stroke-width: 1.0;"/><text fill="#000000" font-family="sans-serif" font-size="11" lengthAdjust="spacingAndGlyphs" textLength="54" x="2081.5" y="374.6245">Triangle()</text><ellipse cx="2072.5" cy="384.2188" fill="#84BE84" rx="3" ry="3" style="stroke: #038048; stroke-width: 1.0;"/><text fill="#000000" font-family="sans-serif" font-size="11" lengthAdjust="spacingAndGlyphs" textLength="216" x="2081.5" y="387.4292">Triangle(double a, double b, double c)</text><text fill="#000000" font-family="sans-serif" font-size="11" lengthAdjust="spacingAndGlyphs" textLength="0" x="2085.5" y="400.2339"/><ellipse cx="2072.5" cy="409.8281" fill="#84BE84" rx="3" ry="3" style="stroke: #038048; stroke-width: 1.0;"/><text fill="#000000" font-family="sans-serif" font-size="11" lengthAdjust="spacingAndGlyphs" textLength="75" x="2081.5" y="413.0386">double getA()</text><ellipse cx="2072.5" cy="422.6328" fill="#84BE84" rx="3" ry="3" style="stroke: #038048; stroke-width: 1.0;"/><text fill="#000000" font-family="sans-serif" font-size="11" lengthAdjust="spacingAndGlyphs" textLength="109" x="2081.5" y="425.8433">void setA(double a)</text><ellipse cx="2072.5" cy="435.4375" fill="#84BE84" rx="3" ry="3" style="stroke: #038048; stroke-width: 1.0;"/><text fill="#000000" font-family="sans-serif" font-size="11" lengthAdjust="spacingAndGlyphs" textLength="76" x="2081.5" y="438.6479">double getB()</text><ellipse cx="2072.5" cy="448.2422" fill="#84BE84" rx="3" ry="3" style="stroke: #038048; stroke-width: 1.0;"/><text fill="#000000" font-family="sans-serif" font-size="11" lengthAdjust="spacingAndGlyphs" textLength="110" x="2081.5" y="451.4526">void setB(double b)</text><ellipse cx="2072.5" cy="461.0469" fill="#84BE84" rx="3" ry="3" style="stroke: #038048; stroke-width: 1.0;"/><text fill="#000000" font-family="sans-serif" font-size="11" lengthAdjust="spacingAndGlyphs" textLength="76" x="2081.5" y="464.2573">double getC()</text><ellipse cx="2072.5" cy="473.8516" fill="#84BE84" rx="3" ry="3" style="stroke: #038048; stroke-width: 1.0;"/><text fill="#000000" font-family="sans-serif" font-size="11" lengthAdjust="spacingAndGlyphs" textLength="109" x="2081.5" y="477.062">void setC(double c)</text><text fill="#000000" font-family="sans-serif" font-size="11" lengthAdjust="spacingAndGlyphs" textLength="0" x="2085.5" y="489.8667"/><ellipse cx="2072.5" cy="499.4609" fill="#84BE84" rx="3" ry="3" style="stroke: #038048; stroke-width: 1.0;"/><text fill="#000000" font-family="sans-serif" font-size="11" lengthAdjust="spacingAndGlyphs" textLength="63" x="2081.5" y="502.6714">void draw()</text><ellipse cx="2072.5" cy="512.2656" fill="#84BE84" rx="3" ry="3" style="stroke: #038048; stroke-width: 1.0;"/><text fill="#000000" font-family="sans-serif" font-size="11" lengthAdjust="spacingAndGlyphs" textLength="68" x="2081.5" y="515.4761">void erase()</text><ellipse cx="2072.5" cy="525.0703" fill="#84BE84" rx="3" ry="3" style="stroke: #038048; stroke-width: 1.0;"/><text fill="#000000" font-family="sans-serif" font-size="11" lengthAdjust="spacingAndGlyphs" textLength="94" x="2081.5" y="528.2808">double getArea()</text><ellipse cx="2072.5" cy="537.875" fill="#84BE84" rx="3" ry="3" style="stroke: #038048; stroke-width: 1.0;"/><text fill="#000000" font-family="sans-serif" font-size="11" lengthAdjust="spacingAndGlyphs" textLength="124" x="2081.5" y="541.0854">double getPerimeter()</text><ellipse cx="2072.5" cy="550.6797" fill="#84BE84" rx="3" ry="3" style="stroke: #038048; stroke-width: 1.0;"/><text fill="#000000" font-family="sans-serif" font-size="11" lengthAdjust="spacingAndGlyphs" textLength="91" x="2081.5" y="553.8901">String toString()</text><!--reverse link Comparator to CircleComparator--><path d="M487.2478,153.8913 C421.0126,183.9961 331.3102,229.3565 260.5,282 C217.2848,314.1281 175.1263,360.1796 149.4834,390.333 " fill="none" id="Comparator&lt;-CircleComparator" style="stroke: #A80036; stroke-width: 1.0;"/><polygon fill="none" points="484.5896,147.4118,505.7034,145.6207,490.3149,160.1876,484.5896,147.4118" style="stroke: #A80036; stroke-width: 1.0;"/><!--reverse link Comparator to RectangleComparator--><path d="M554.5537,163.9332 C522.0705,227.6502 466.2525,337.1393 439.1617,390.2789 " fill="none" id="Comparator&lt;-RectangleComparator" style="stroke: #A80036; stroke-width: 1.0;"/><polygon fill="none" points="548.5077,160.3803,563.8279,145.7415,560.9804,166.739,548.5077,160.3803" style="stroke: #A80036; stroke-width: 1.0;"/><!--reverse link Comparator to SquareComparator--><path d="M604.2864,163.9332 C636.5614,227.6502 692.0216,337.1393 718.9387,390.2789 " fill="none" id="Comparator&lt;-SquareComparator" style="stroke: #A80036; stroke-width: 1.0;"/><polygon fill="none" points="597.8646,166.7463,595.0717,145.7415,610.3537,160.42,597.8646,166.7463" style="stroke: #A80036; stroke-width: 1.0;"/><!--reverse link Comparator to TriangleComparator--><path d="M663.247,154.5838 C725.8722,185.7215 812.4116,232.0702 882.5,282 C928.9944,315.1218 976.9492,360.5131 1006.7332,390.284 " fill="none" id="Comparator&lt;-TriangleComparator" style="stroke: #A80036; stroke-width: 1.0;"/><polygon fill="none" points="659.8862,160.7317,645.032,145.6202,666.0677,148.1702,659.8862,160.7317" style="stroke: #A80036; stroke-width: 1.0;"/><!--reverse link Shape to User--><path d="M1603.6667,145.9155 C1524.3893,171.8704 1420.5087,215.5408 1347.5,282 C1318.6605,308.2524 1297.681,347.5572 1284.6209,377.6798 " fill="none" id="Shape&lt;-User" style="stroke: #A80036; stroke-width: 1.0;"/><polygon fill="#A80036" points="1616.1705,141.9013,1609.235,139.9269,1604.7449,145.5696,1611.6805,147.544,1616.1705,141.9013" style="stroke: #A80036; stroke-width: 1.0;"/><!--reverse link Shape to Circle--><path d="M1614.6787,237.6821 C1602.1303,252.5938 1589.5102,267.6302 1577.5,282 C1567.2563,294.2563 1556.53,307.1458 1545.9199,319.9299 " fill="none" id="Shape&lt;-Circle" style="stroke: #A80036; stroke-width: 1.0;"/><polygon fill="none" points="1609.463,233.0085,1627.701,222.2208,1620.171,242.0273,1609.463,233.0085" style="stroke: #A80036; stroke-width: 1.0;"/><!--reverse link Shape to Rectangle--><path d="M1718.5,242.0719 C1718.5,261.5636 1718.5,281.6336 1718.5,300.9664 " fill="none" id="Shape&lt;-Rectangle" style="stroke: #A80036; stroke-width: 1.0;"/><polygon fill="none" points="1711.5001,242.024,1718.5,222.024,1725.5001,242.0239,1711.5001,242.024" style="stroke: #A80036; stroke-width: 1.0;"/><!--reverse link Shape to Square--><path d="M1825.0596,237.9632 C1836.9286,252.6068 1848.6406,267.5035 1859.5,282 C1868.5221,294.0438 1877.6748,306.9299 1886.5329,319.8192 " fill="none" id="Shape&lt;-Square" style="stroke: #A80036; stroke-width: 1.0;"/><polygon fill="none" points="1819.4091,242.1117,1812.1516,222.2036,1830.2399,233.2407,1819.4091,242.1117" style="stroke: #A80036; stroke-width: 1.0;"/><!--reverse link Shape to Triangle--><path d="M1839.0548,165.617 C1902.9304,195.124 1981.07,235.6344 2044.5,282 C2050.1278,286.1138 2055.7393,290.4601 2061.3008,294.9752 " fill="none" id="Shape&lt;-Triangle" style="stroke: #A80036; stroke-width: 1.0;"/><polygon fill="none" points="1835.8841,171.8648,1820.5836,157.2055,1841.6863,159.1237,1835.8841,171.8648" style="stroke: #A80036; stroke-width: 1.0;"/><!--
@startuml   Camparable Geometric
Interface Comparator<Shape> {
    + int compare(T obj1, T obj2)
}

class CircleComparator {
    + int comparTo(Circle obj1, Circle obj2)
}

class RectangleComparator {
    + int compareTo(Rectangle obj1, Rectangle obj2)
}

class SquareComparator {
    + int compareTo(Square obj1, Square obj2)
}

class TriangleComparator {
    + int compareTo(Triangle obj1, Triangle obj2)
}

class User {
    - Scanner sc

    + User()
    + double getInput()
}

abstract class Shape {
    # int xPos
    # int yPos
    # User user

    # Shape(int xPos, int yPos)

    + {abstract} void draw()
    + {abstract} void erase()
    + {abstract} double getArea()

    + void moveTo(int xPos, int yPos)
    + int compareTo(Shape shape)

    + String toString()
}
class Circle {
    - double raidus

    + Circle() 
    + Circle(double radius)

    + double getRadius()
    + void setRadius(double radius)

    + void draw()
    + void erase()
    + double getArea()
    + double getPerimeter()
    + String toString()
}
class Rectangle {
    - double width
    - double height

    + Rectangle()
    + Rectangle(double width, double height)

    + double getWidth()
    + void setWidth(double width)
    + double getHeight()
    + void setHeight(double height)

    + void draw()
    + void erase()
    + double getArea()
    + double getPerimeter()
    + String toString()
}
class Square {
    - double size

    + Square()
    + Square(double size)

    + getSize()
    + setSize(double size)

    + void draw()
    + void erase()
    + double getArea()
    + double getPerimeter()
    + String toString()
}
class Triangle {
    - double a
    - double b
    - double c

    + Triangle()
    + Triangle(double a, double b, double c)

    + double getA()
    + void setA(double a)
    + double getB()
    + void setB(double b)
    + double getC()
    + void setC(double c)

    + void draw()
    + void erase()
    + double getArea()
    + double getPerimeter()
    + String toString()
}

Comparator <|- - CircleComparator
Comparator <|- - RectangleComparator
Comparator <|- - SquareComparator
Comparator <|- - TriangleComparator

Shape *- - User
Shape <|- - Circle
Shape <|- - Rectangle
Shape <|- - Square
Shape <|- - Triangle

@enduml

PlantUML version 1.2019.09(Mon Aug 26 23:19:51 ICT 2019)
(GPL source distribution)
Java Runtime: OpenJDK Runtime Environment
JVM: OpenJDK 64-Bit Server VM
Java Version: 1.8.0_171-8u171-b11-2-b11
Operating System: Linux
OS Version: 4.19.0-kali1-amd64
Default Encoding: UTF-8
Language: en
Country: US
--></g></svg>