<?xml version="1.0" encoding="UTF-8" standalone="no"?><svg xmlns="http://www.w3.org/2000/svg" xmlns:xlink="http://www.w3.org/1999/xlink" contentScriptType="application/ecmascript" contentStyleType="text/css" height="692px" preserveAspectRatio="none" style="width:1113px;height:692px;" version="1.1" viewBox="0 0 1113 692" width="1113px" zoomAndPan="magnify"><defs><filter height="300%" id="f4cscfl8ejo4q" width="300%" x="-1" y="-1"><feGaussianBlur result="blurOut" stdDeviation="2.0"/><feColorMatrix in="blurOut" result="blurOut2" type="matrix" values="0 0 0 0 0 0 0 0 0 0 0 0 0 0 0 0 0 0 .4 0"/><feOffset dx="4.0" dy="4.0" in="blurOut2" result="blurOut3"/><feBlend in="SourceGraphic" in2="blurOut3" mode="normal"/></filter></defs><g><!--class Comparable--><rect fill="#FEFECE" filter="url(#f4cscfl8ejo4q)" height="60.8047" id="Comparable" style="stroke: #A80036; stroke-width: 1.5;" width="144" x="445" y="8"/><ellipse cx="476.65" cy="24" fill="#B4A7E5" rx="11" ry="11" style="stroke: #A80036; stroke-width: 1.0;"/><path d="M472.5719,19.7656 L472.5719,17.6094 L479.9625,17.6094 L479.9625,19.7656 L477.4938,19.7656 L477.4938,27.8438 L479.9625,27.8438 L479.9625,30 L472.5719,30 L472.5719,27.8438 L475.0406,27.8438 L475.0406,19.7656 L472.5719,19.7656 Z "/><text fill="#000000" font-family="sans-serif" font-size="12" font-style="italic" lengthAdjust="spacingAndGlyphs" textLength="75" x="494.35" y="28.1543">Comparable</text><line style="stroke: #A80036; stroke-width: 1.5;" x1="446" x2="588" y1="40" y2="40"/><line style="stroke: #A80036; stroke-width: 1.5;" x1="446" x2="588" y1="48" y2="48"/><ellipse cx="456" cy="59" fill="#84BE84" rx="3" ry="3" style="stroke: #038048; stroke-width: 1.0;"/><text fill="#000000" font-family="sans-serif" font-size="11" lengthAdjust="spacingAndGlyphs" textLength="118" x="465" y="62.2104">int compareTo(T obj)</text><!--class User--><rect fill="#FEFECE" filter="url(#f4cscfl8ejo4q)" height="86.4141" id="User" style="stroke: #A80036; stroke-width: 1.5;" width="122" x="6" y="499"/><ellipse cx="48.45" cy="515" fill="#ADD1B2" rx="11" ry="11" style="stroke: #A80036; stroke-width: 1.0;"/><path d="M51.4188,520.6406 Q50.8406,520.9375 50.2,521.0859 Q49.5594,521.2344 48.8563,521.2344 Q46.3563,521.2344 45.0359,519.5859 Q43.7156,517.9375 43.7156,514.8125 Q43.7156,511.6875 45.0359,510.0313 Q46.3563,508.375 48.8563,508.375 Q49.5594,508.375 50.2078,508.5313 Q50.8563,508.6875 51.4188,508.9844 L51.4188,511.7031 Q50.7938,511.125 50.2,510.8516 Q49.6063,510.5781 48.9813,510.5781 Q47.6375,510.5781 46.95,511.6484 Q46.2625,512.7188 46.2625,514.8125 Q46.2625,516.9063 46.95,517.9766 Q47.6375,519.0469 48.9813,519.0469 Q49.6063,519.0469 50.2,518.7734 Q50.7938,518.5 51.4188,517.9219 L51.4188,520.6406 Z "/><text fill="#000000" font-family="sans-serif" font-size="12" lengthAdjust="spacingAndGlyphs" textLength="29" x="68.55" y="519.1543">User</text><line style="stroke: #A80036; stroke-width: 1.5;" x1="7" x2="127" y1="531" y2="531"/><rect fill="none" height="6" style="stroke: #C82930; stroke-width: 1.0;" width="6" x="14" y="539"/><text fill="#000000" font-family="sans-serif" font-size="11" lengthAdjust="spacingAndGlyphs" textLength="64" x="26" y="545.2104">Scanner sc</text><line style="stroke: #A80036; stroke-width: 1.5;" x1="7" x2="127" y1="551.8047" y2="551.8047"/><ellipse cx="17" cy="562.8047" fill="#84BE84" rx="3" ry="3" style="stroke: #038048; stroke-width: 1.0;"/><text fill="#000000" font-family="sans-serif" font-size="11" lengthAdjust="spacingAndGlyphs" textLength="35" x="26" y="566.0151">User()</text><ellipse cx="17" cy="575.6094" fill="#84BE84" rx="3" ry="3" style="stroke: #038048; stroke-width: 1.0;"/><text fill="#000000" font-family="sans-serif" font-size="11" lengthAdjust="spacingAndGlyphs" textLength="96" x="26" y="578.8198">double getInput()</text><!--class Shape--><rect fill="#FEFECE" filter="url(#f4cscfl8ejo4q)" height="214.4609" id="Shape" style="stroke: #A80036; stroke-width: 1.5;" width="204" x="415" y="129"/><ellipse cx="492.75" cy="145" fill="#A9DCDF" rx="11" ry="11" style="stroke: #A80036; stroke-width: 1.0;"/><path d="M492.8594,140.3438 L491.7031,145.4219 L494.0313,145.4219 L492.8594,140.3438 Z M491.375,138.1094 L494.3594,138.1094 L497.7188,150.5 L495.2656,150.5 L494.5,147.4375 L491.2188,147.4375 L490.4688,150.5 L488.0313,150.5 L491.375,138.1094 Z "/><text fill="#000000" font-family="sans-serif" font-size="12" font-style="italic" lengthAdjust="spacingAndGlyphs" textLength="40" x="513.25" y="149.1543">Shape</text><line style="stroke: #A80036; stroke-width: 1.5;" x1="416" x2="618" y1="161" y2="161"/><polygon fill="none" points="426,167,430,171,426,175,422,171" style="stroke: #B38D22; stroke-width: 1.0;"/><text fill="#000000" font-family="sans-serif" font-size="11" lengthAdjust="spacingAndGlyphs" textLength="45" x="435" y="175.2104">int xPos</text><polygon fill="none" points="426,179.8047,430,183.8047,426,187.8047,422,183.8047" style="stroke: #B38D22; stroke-width: 1.0;"/><text fill="#000000" font-family="sans-serif" font-size="11" lengthAdjust="spacingAndGlyphs" textLength="45" x="435" y="188.0151">int yPos</text><polygon fill="none" points="426,192.6094,430,196.6094,426,200.6094,422,196.6094" style="stroke: #B38D22; stroke-width: 1.0;"/><text fill="#000000" font-family="sans-serif" font-size="11" lengthAdjust="spacingAndGlyphs" textLength="57" x="435" y="200.8198">User user</text><line style="stroke: #A80036; stroke-width: 1.5;" x1="416" x2="618" y1="207.4141" y2="207.4141"/><polygon fill="#FFFF44" points="426,213.4141,430,217.4141,426,221.4141,422,217.4141" style="stroke: #B38D22; stroke-width: 1.0;"/><text fill="#000000" font-family="sans-serif" font-size="11" lengthAdjust="spacingAndGlyphs" textLength="142" x="435" y="221.6245">Shape(int xPos, int yPos)</text><text fill="#000000" font-family="sans-serif" font-size="11" lengthAdjust="spacingAndGlyphs" textLength="0" x="439" y="234.4292"/><ellipse cx="426" cy="244.0234" fill="#84BE84" rx="3" ry="3" style="stroke: #038048; stroke-width: 1.0;"/><text fill="#000000" font-family="sans-serif" font-size="11" font-style="italic" lengthAdjust="spacingAndGlyphs" textLength="64" x="435" y="247.2339">void draw()</text><ellipse cx="426" cy="256.8281" fill="#84BE84" rx="3" ry="3" style="stroke: #038048; stroke-width: 1.0;"/><text fill="#000000" font-family="sans-serif" font-size="11" font-style="italic" lengthAdjust="spacingAndGlyphs" textLength="68" x="435" y="260.0386">void erase()</text><ellipse cx="426" cy="269.6328" fill="#84BE84" rx="3" ry="3" style="stroke: #038048; stroke-width: 1.0;"/><text fill="#000000" font-family="sans-serif" font-size="11" font-style="italic" lengthAdjust="spacingAndGlyphs" textLength="95" x="435" y="272.8433">double getArea()</text><text fill="#000000" font-family="sans-serif" font-size="11" lengthAdjust="spacingAndGlyphs" textLength="0" x="439" y="285.6479"/><ellipse cx="426" cy="295.2422" fill="#84BE84" rx="3" ry="3" style="stroke: #038048; stroke-width: 1.0;"/><text fill="#000000" font-family="sans-serif" font-size="11" lengthAdjust="spacingAndGlyphs" textLength="178" x="435" y="298.4526">void moveTo(int xPos, int yPos)</text><ellipse cx="426" cy="308.0469" fill="#84BE84" rx="3" ry="3" style="stroke: #038048; stroke-width: 1.0;"/><text fill="#000000" font-family="sans-serif" font-size="11" lengthAdjust="spacingAndGlyphs" textLength="165" x="435" y="311.2573">int compareTo(Shape shape)</text><text fill="#000000" font-family="sans-serif" font-size="11" lengthAdjust="spacingAndGlyphs" textLength="0" x="439" y="324.062"/><ellipse cx="426" cy="333.6563" fill="#84BE84" rx="3" ry="3" style="stroke: #038048; stroke-width: 1.0;"/><text fill="#000000" font-family="sans-serif" font-size="11" lengthAdjust="spacingAndGlyphs" textLength="91" x="435" y="336.8667">String toString()</text><!--class Circle--><rect fill="#FEFECE" filter="url(#f4cscfl8ejo4q)" height="201.6563" id="Circle" style="stroke: #A80036; stroke-width: 1.5;" width="195" x="163.5" y="441"/><ellipse cx="239.75" cy="457" fill="#ADD1B2" rx="11" ry="11" style="stroke: #A80036; stroke-width: 1.0;"/><path d="M242.7188,462.6406 Q242.1406,462.9375 241.5,463.0859 Q240.8594,463.2344 240.1563,463.2344 Q237.6563,463.2344 236.3359,461.5859 Q235.0156,459.9375 235.0156,456.8125 Q235.0156,453.6875 236.3359,452.0313 Q237.6563,450.375 240.1563,450.375 Q240.8594,450.375 241.5078,450.5313 Q242.1563,450.6875 242.7188,450.9844 L242.7188,453.7031 Q242.0938,453.125 241.5,452.8516 Q240.9063,452.5781 240.2813,452.5781 Q238.9375,452.5781 238.25,453.6484 Q237.5625,454.7188 237.5625,456.8125 Q237.5625,458.9063 238.25,459.9766 Q238.9375,461.0469 240.2813,461.0469 Q240.9063,461.0469 241.5,460.7734 Q242.0938,460.5 242.7188,459.9219 L242.7188,462.6406 Z "/><text fill="#000000" font-family="sans-serif" font-size="12" lengthAdjust="spacingAndGlyphs" textLength="34" x="260.25" y="461.1543">Circle</text><line style="stroke: #A80036; stroke-width: 1.5;" x1="164.5" x2="357.5" y1="473" y2="473"/><rect fill="none" height="6" style="stroke: #C82930; stroke-width: 1.0;" width="6" x="171.5" y="481"/><text fill="#000000" font-family="sans-serif" font-size="11" lengthAdjust="spacingAndGlyphs" textLength="78" x="183.5" y="487.2104">double raidus</text><line style="stroke: #A80036; stroke-width: 1.5;" x1="164.5" x2="357.5" y1="493.8047" y2="493.8047"/><ellipse cx="174.5" cy="504.8047" fill="#84BE84" rx="3" ry="3" style="stroke: #038048; stroke-width: 1.0;"/><text fill="#000000" font-family="sans-serif" font-size="11" lengthAdjust="spacingAndGlyphs" textLength="40" x="183.5" y="508.0151">Circle()</text><ellipse cx="174.5" cy="517.6094" fill="#84BE84" rx="3" ry="3" style="stroke: #038048; stroke-width: 1.0;"/><text fill="#000000" font-family="sans-serif" font-size="11" lengthAdjust="spacingAndGlyphs" textLength="118" x="183.5" y="520.8198">Circle(double radius)</text><text fill="#000000" font-family="sans-serif" font-size="11" lengthAdjust="spacingAndGlyphs" textLength="0" x="187.5" y="533.6245"/><ellipse cx="174.5" cy="543.2188" fill="#84BE84" rx="3" ry="3" style="stroke: #038048; stroke-width: 1.0;"/><text fill="#000000" font-family="sans-serif" font-size="11" lengthAdjust="spacingAndGlyphs" textLength="106" x="183.5" y="546.4292">double getRadius()</text><ellipse cx="174.5" cy="556.0234" fill="#84BE84" rx="3" ry="3" style="stroke: #038048; stroke-width: 1.0;"/><text fill="#000000" font-family="sans-serif" font-size="11" lengthAdjust="spacingAndGlyphs" textLength="169" x="183.5" y="559.2339">void setRadius(double radius)</text><text fill="#000000" font-family="sans-serif" font-size="11" lengthAdjust="spacingAndGlyphs" textLength="0" x="187.5" y="572.0386"/><ellipse cx="174.5" cy="581.6328" fill="#84BE84" rx="3" ry="3" style="stroke: #038048; stroke-width: 1.0;"/><text fill="#000000" font-family="sans-serif" font-size="11" lengthAdjust="spacingAndGlyphs" textLength="63" x="183.5" y="584.8433">void draw()</text><ellipse cx="174.5" cy="594.4375" fill="#84BE84" rx="3" ry="3" style="stroke: #038048; stroke-width: 1.0;"/><text fill="#000000" font-family="sans-serif" font-size="11" lengthAdjust="spacingAndGlyphs" textLength="68" x="183.5" y="597.6479">void erase()</text><ellipse cx="174.5" cy="607.2422" fill="#84BE84" rx="3" ry="3" style="stroke: #038048; stroke-width: 1.0;"/><text fill="#000000" font-family="sans-serif" font-size="11" lengthAdjust="spacingAndGlyphs" textLength="94" x="183.5" y="610.4526">double getArea()</text><ellipse cx="174.5" cy="620.0469" fill="#84BE84" rx="3" ry="3" style="stroke: #038048; stroke-width: 1.0;"/><text fill="#000000" font-family="sans-serif" font-size="11" lengthAdjust="spacingAndGlyphs" textLength="124" x="183.5" y="623.2573">double getPerimeter()</text><ellipse cx="174.5" cy="632.8516" fill="#84BE84" rx="3" ry="3" style="stroke: #038048; stroke-width: 1.0;"/><text fill="#000000" font-family="sans-serif" font-size="11" lengthAdjust="spacingAndGlyphs" textLength="91" x="183.5" y="636.062">String toString()</text><!--class Rectangle--><rect fill="#FEFECE" filter="url(#f4cscfl8ejo4q)" height="240.0703" id="Rectangle" style="stroke: #A80036; stroke-width: 1.5;" width="246" x="394" y="422"/><ellipse cx="481.25" cy="438" fill="#ADD1B2" rx="11" ry="11" style="stroke: #A80036; stroke-width: 1.0;"/><path d="M484.2188,443.6406 Q483.6406,443.9375 483,444.0859 Q482.3594,444.2344 481.6563,444.2344 Q479.1563,444.2344 477.8359,442.5859 Q476.5156,440.9375 476.5156,437.8125 Q476.5156,434.6875 477.8359,433.0313 Q479.1563,431.375 481.6563,431.375 Q482.3594,431.375 483.0078,431.5313 Q483.6563,431.6875 484.2188,431.9844 L484.2188,434.7031 Q483.5938,434.125 483,433.8516 Q482.4063,433.5781 481.7813,433.5781 Q480.4375,433.5781 479.75,434.6484 Q479.0625,435.7188 479.0625,437.8125 Q479.0625,439.9063 479.75,440.9766 Q480.4375,442.0469 481.7813,442.0469 Q482.4063,442.0469 483,441.7734 Q483.5938,441.5 484.2188,440.9219 L484.2188,443.6406 Z "/><text fill="#000000" font-family="sans-serif" font-size="12" lengthAdjust="spacingAndGlyphs" textLength="63" x="501.75" y="442.1543">Rectangle</text><line style="stroke: #A80036; stroke-width: 1.5;" x1="395" x2="639" y1="454" y2="454"/><rect fill="none" height="6" style="stroke: #C82930; stroke-width: 1.0;" width="6" x="402" y="462"/><text fill="#000000" font-family="sans-serif" font-size="11" lengthAdjust="spacingAndGlyphs" textLength="72" x="414" y="468.2104">double width</text><rect fill="none" height="6" style="stroke: #C82930; stroke-width: 1.0;" width="6" x="402" y="474.8047"/><text fill="#000000" font-family="sans-serif" font-size="11" lengthAdjust="spacingAndGlyphs" textLength="77" x="414" y="481.0151">double height</text><line style="stroke: #A80036; stroke-width: 1.5;" x1="395" x2="639" y1="487.6094" y2="487.6094"/><ellipse cx="405" cy="498.6094" fill="#84BE84" rx="3" ry="3" style="stroke: #038048; stroke-width: 1.0;"/><text fill="#000000" font-family="sans-serif" font-size="11" lengthAdjust="spacingAndGlyphs" textLength="63" x="414" y="501.8198">Rectangle()</text><ellipse cx="405" cy="511.4141" fill="#84BE84" rx="3" ry="3" style="stroke: #038048; stroke-width: 1.0;"/><text fill="#000000" font-family="sans-serif" font-size="11" lengthAdjust="spacingAndGlyphs" textLength="220" x="414" y="514.6245">Rectangle(double width, double height)</text><text fill="#000000" font-family="sans-serif" font-size="11" lengthAdjust="spacingAndGlyphs" textLength="0" x="418" y="527.4292"/><ellipse cx="405" cy="537.0234" fill="#84BE84" rx="3" ry="3" style="stroke: #038048; stroke-width: 1.0;"/><text fill="#000000" font-family="sans-serif" font-size="11" lengthAdjust="spacingAndGlyphs" textLength="98" x="414" y="540.2339">double getWidth()</text><ellipse cx="405" cy="549.8281" fill="#84BE84" rx="3" ry="3" style="stroke: #038048; stroke-width: 1.0;"/><text fill="#000000" font-family="sans-serif" font-size="11" lengthAdjust="spacingAndGlyphs" textLength="155" x="414" y="553.0386">void setWidth(double width)</text><ellipse cx="405" cy="562.6328" fill="#84BE84" rx="3" ry="3" style="stroke: #038048; stroke-width: 1.0;"/><text fill="#000000" font-family="sans-serif" font-size="11" lengthAdjust="spacingAndGlyphs" textLength="104" x="414" y="565.8433">double getHeight()</text><ellipse cx="405" cy="575.4375" fill="#84BE84" rx="3" ry="3" style="stroke: #038048; stroke-width: 1.0;"/><text fill="#000000" font-family="sans-serif" font-size="11" lengthAdjust="spacingAndGlyphs" textLength="166" x="414" y="578.6479">void setHeight(double height)</text><text fill="#000000" font-family="sans-serif" font-size="11" lengthAdjust="spacingAndGlyphs" textLength="0" x="418" y="591.4526"/><ellipse cx="405" cy="601.0469" fill="#84BE84" rx="3" ry="3" style="stroke: #038048; stroke-width: 1.0;"/><text fill="#000000" font-family="sans-serif" font-size="11" lengthAdjust="spacingAndGlyphs" textLength="63" x="414" y="604.2573">void draw()</text><ellipse cx="405" cy="613.8516" fill="#84BE84" rx="3" ry="3" style="stroke: #038048; stroke-width: 1.0;"/><text fill="#000000" font-family="sans-serif" font-size="11" lengthAdjust="spacingAndGlyphs" textLength="68" x="414" y="617.062">void erase()</text><ellipse cx="405" cy="626.6563" fill="#84BE84" rx="3" ry="3" style="stroke: #038048; stroke-width: 1.0;"/><text fill="#000000" font-family="sans-serif" font-size="11" lengthAdjust="spacingAndGlyphs" textLength="94" x="414" y="629.8667">double getArea()</text><ellipse cx="405" cy="639.4609" fill="#84BE84" rx="3" ry="3" style="stroke: #038048; stroke-width: 1.0;"/><text fill="#000000" font-family="sans-serif" font-size="11" lengthAdjust="spacingAndGlyphs" textLength="124" x="414" y="642.6714">double getPerimeter()</text><ellipse cx="405" cy="652.2656" fill="#84BE84" rx="3" ry="3" style="stroke: #038048; stroke-width: 1.0;"/><text fill="#000000" font-family="sans-serif" font-size="11" lengthAdjust="spacingAndGlyphs" textLength="91" x="414" y="655.4761">String toString()</text><!--class Square--><rect fill="#FEFECE" filter="url(#f4cscfl8ejo4q)" height="201.6563" id="Square" style="stroke: #A80036; stroke-width: 1.5;" width="150" x="675" y="441"/><ellipse cx="723.25" cy="457" fill="#ADD1B2" rx="11" ry="11" style="stroke: #A80036; stroke-width: 1.0;"/><path d="M726.2188,462.6406 Q725.6406,462.9375 725,463.0859 Q724.3594,463.2344 723.6563,463.2344 Q721.1563,463.2344 719.8359,461.5859 Q718.5156,459.9375 718.5156,456.8125 Q718.5156,453.6875 719.8359,452.0313 Q721.1563,450.375 723.6563,450.375 Q724.3594,450.375 725.0078,450.5313 Q725.6563,450.6875 726.2188,450.9844 L726.2188,453.7031 Q725.5938,453.125 725,452.8516 Q724.4063,452.5781 723.7813,452.5781 Q722.4375,452.5781 721.75,453.6484 Q721.0625,454.7188 721.0625,456.8125 Q721.0625,458.9063 721.75,459.9766 Q722.4375,461.0469 723.7813,461.0469 Q724.4063,461.0469 725,460.7734 Q725.5938,460.5 726.2188,459.9219 L726.2188,462.6406 Z "/><text fill="#000000" font-family="sans-serif" font-size="12" lengthAdjust="spacingAndGlyphs" textLength="45" x="743.75" y="461.1543">Square</text><line style="stroke: #A80036; stroke-width: 1.5;" x1="676" x2="824" y1="473" y2="473"/><rect fill="none" height="6" style="stroke: #C82930; stroke-width: 1.0;" width="6" x="683" y="481"/><text fill="#000000" font-family="sans-serif" font-size="11" lengthAdjust="spacingAndGlyphs" textLength="64" x="695" y="487.2104">double size</text><line style="stroke: #A80036; stroke-width: 1.5;" x1="676" x2="824" y1="493.8047" y2="493.8047"/><ellipse cx="686" cy="504.8047" fill="#84BE84" rx="3" ry="3" style="stroke: #038048; stroke-width: 1.0;"/><text fill="#000000" font-family="sans-serif" font-size="11" lengthAdjust="spacingAndGlyphs" textLength="49" x="695" y="508.0151">Square()</text><ellipse cx="686" cy="517.6094" fill="#84BE84" rx="3" ry="3" style="stroke: #038048; stroke-width: 1.0;"/><text fill="#000000" font-family="sans-serif" font-size="11" lengthAdjust="spacingAndGlyphs" textLength="113" x="695" y="520.8198">Square(double size)</text><text fill="#000000" font-family="sans-serif" font-size="11" lengthAdjust="spacingAndGlyphs" textLength="0" x="699" y="533.6245"/><ellipse cx="686" cy="543.2188" fill="#84BE84" rx="3" ry="3" style="stroke: #038048; stroke-width: 1.0;"/><text fill="#000000" font-family="sans-serif" font-size="11" lengthAdjust="spacingAndGlyphs" textLength="49" x="695" y="546.4292">getSize()</text><ellipse cx="686" cy="556.0234" fill="#84BE84" rx="3" ry="3" style="stroke: #038048; stroke-width: 1.0;"/><text fill="#000000" font-family="sans-serif" font-size="11" lengthAdjust="spacingAndGlyphs" textLength="113" x="695" y="559.2339">setSize(double size)</text><text fill="#000000" font-family="sans-serif" font-size="11" lengthAdjust="spacingAndGlyphs" textLength="0" x="699" y="572.0386"/><ellipse cx="686" cy="581.6328" fill="#84BE84" rx="3" ry="3" style="stroke: #038048; stroke-width: 1.0;"/><text fill="#000000" font-family="sans-serif" font-size="11" lengthAdjust="spacingAndGlyphs" textLength="63" x="695" y="584.8433">void draw()</text><ellipse cx="686" cy="594.4375" fill="#84BE84" rx="3" ry="3" style="stroke: #038048; stroke-width: 1.0;"/><text fill="#000000" font-family="sans-serif" font-size="11" lengthAdjust="spacingAndGlyphs" textLength="68" x="695" y="597.6479">void erase()</text><ellipse cx="686" cy="607.2422" fill="#84BE84" rx="3" ry="3" style="stroke: #038048; stroke-width: 1.0;"/><text fill="#000000" font-family="sans-serif" font-size="11" lengthAdjust="spacingAndGlyphs" textLength="94" x="695" y="610.4526">double getArea()</text><ellipse cx="686" cy="620.0469" fill="#84BE84" rx="3" ry="3" style="stroke: #038048; stroke-width: 1.0;"/><text fill="#000000" font-family="sans-serif" font-size="11" lengthAdjust="spacingAndGlyphs" textLength="124" x="695" y="623.2573">double getPerimeter()</text><ellipse cx="686" cy="632.8516" fill="#84BE84" rx="3" ry="3" style="stroke: #038048; stroke-width: 1.0;"/><text fill="#000000" font-family="sans-serif" font-size="11" lengthAdjust="spacingAndGlyphs" textLength="91" x="695" y="636.062">String toString()</text><!--class Triangle--><rect fill="#FEFECE" filter="url(#f4cscfl8ejo4q)" height="278.4844" id="Triangle" style="stroke: #A80036; stroke-width: 1.5;" width="242" x="860" y="403"/><ellipse cx="951.75" cy="419" fill="#ADD1B2" rx="11" ry="11" style="stroke: #A80036; stroke-width: 1.0;"/><path d="M954.7188,424.6406 Q954.1406,424.9375 953.5,425.0859 Q952.8594,425.2344 952.1563,425.2344 Q949.6563,425.2344 948.3359,423.5859 Q947.0156,421.9375 947.0156,418.8125 Q947.0156,415.6875 948.3359,414.0313 Q949.6563,412.375 952.1563,412.375 Q952.8594,412.375 953.5078,412.5313 Q954.1563,412.6875 954.7188,412.9844 L954.7188,415.7031 Q954.0938,415.125 953.5,414.8516 Q952.9063,414.5781 952.2813,414.5781 Q950.9375,414.5781 950.25,415.6484 Q949.5625,416.7188 949.5625,418.8125 Q949.5625,420.9063 950.25,421.9766 Q950.9375,423.0469 952.2813,423.0469 Q952.9063,423.0469 953.5,422.7734 Q954.0938,422.5 954.7188,421.9219 L954.7188,424.6406 Z "/><text fill="#000000" font-family="sans-serif" font-size="12" lengthAdjust="spacingAndGlyphs" textLength="50" x="972.25" y="423.1543">Triangle</text><line style="stroke: #A80036; stroke-width: 1.5;" x1="861" x2="1101" y1="435" y2="435"/><rect fill="none" height="6" style="stroke: #C82930; stroke-width: 1.0;" width="6" x="868" y="443"/><text fill="#000000" font-family="sans-serif" font-size="11" lengthAdjust="spacingAndGlyphs" textLength="49" x="880" y="449.2104">double a</text><rect fill="none" height="6" style="stroke: #C82930; stroke-width: 1.0;" width="6" x="868" y="455.8047"/><text fill="#000000" font-family="sans-serif" font-size="11" lengthAdjust="spacingAndGlyphs" textLength="49" x="880" y="462.0151">double b</text><rect fill="none" height="6" style="stroke: #C82930; stroke-width: 1.0;" width="6" x="868" y="468.6094"/><text fill="#000000" font-family="sans-serif" font-size="11" lengthAdjust="spacingAndGlyphs" textLength="48" x="880" y="474.8198">double c</text><line style="stroke: #A80036; stroke-width: 1.5;" x1="861" x2="1101" y1="481.4141" y2="481.4141"/><ellipse cx="871" cy="492.4141" fill="#84BE84" rx="3" ry="3" style="stroke: #038048; stroke-width: 1.0;"/><text fill="#000000" font-family="sans-serif" font-size="11" lengthAdjust="spacingAndGlyphs" textLength="54" x="880" y="495.6245">Triangle()</text><ellipse cx="871" cy="505.2188" fill="#84BE84" rx="3" ry="3" style="stroke: #038048; stroke-width: 1.0;"/><text fill="#000000" font-family="sans-serif" font-size="11" lengthAdjust="spacingAndGlyphs" textLength="216" x="880" y="508.4292">Triangle(double a, double b, double c)</text><text fill="#000000" font-family="sans-serif" font-size="11" lengthAdjust="spacingAndGlyphs" textLength="0" x="884" y="521.2339"/><ellipse cx="871" cy="530.8281" fill="#84BE84" rx="3" ry="3" style="stroke: #038048; stroke-width: 1.0;"/><text fill="#000000" font-family="sans-serif" font-size="11" lengthAdjust="spacingAndGlyphs" textLength="75" x="880" y="534.0386">double getA()</text><ellipse cx="871" cy="543.6328" fill="#84BE84" rx="3" ry="3" style="stroke: #038048; stroke-width: 1.0;"/><text fill="#000000" font-family="sans-serif" font-size="11" lengthAdjust="spacingAndGlyphs" textLength="109" x="880" y="546.8433">void setA(double a)</text><ellipse cx="871" cy="556.4375" fill="#84BE84" rx="3" ry="3" style="stroke: #038048; stroke-width: 1.0;"/><text fill="#000000" font-family="sans-serif" font-size="11" lengthAdjust="spacingAndGlyphs" textLength="76" x="880" y="559.6479">double getB()</text><ellipse cx="871" cy="569.2422" fill="#84BE84" rx="3" ry="3" style="stroke: #038048; stroke-width: 1.0;"/><text fill="#000000" font-family="sans-serif" font-size="11" lengthAdjust="spacingAndGlyphs" textLength="110" x="880" y="572.4526">void setB(double b)</text><ellipse cx="871" cy="582.0469" fill="#84BE84" rx="3" ry="3" style="stroke: #038048; stroke-width: 1.0;"/><text fill="#000000" font-family="sans-serif" font-size="11" lengthAdjust="spacingAndGlyphs" textLength="76" x="880" y="585.2573">double getC()</text><ellipse cx="871" cy="594.8516" fill="#84BE84" rx="3" ry="3" style="stroke: #038048; stroke-width: 1.0;"/><text fill="#000000" font-family="sans-serif" font-size="11" lengthAdjust="spacingAndGlyphs" textLength="109" x="880" y="598.062">void setC(double c)</text><text fill="#000000" font-family="sans-serif" font-size="11" lengthAdjust="spacingAndGlyphs" textLength="0" x="884" y="610.8667"/><ellipse cx="871" cy="620.4609" fill="#84BE84" rx="3" ry="3" style="stroke: #038048; stroke-width: 1.0;"/><text fill="#000000" font-family="sans-serif" font-size="11" lengthAdjust="spacingAndGlyphs" textLength="63" x="880" y="623.6714">void draw()</text><ellipse cx="871" cy="633.2656" fill="#84BE84" rx="3" ry="3" style="stroke: #038048; stroke-width: 1.0;"/><text fill="#000000" font-family="sans-serif" font-size="11" lengthAdjust="spacingAndGlyphs" textLength="68" x="880" y="636.4761">void erase()</text><ellipse cx="871" cy="646.0703" fill="#84BE84" rx="3" ry="3" style="stroke: #038048; stroke-width: 1.0;"/><text fill="#000000" font-family="sans-serif" font-size="11" lengthAdjust="spacingAndGlyphs" textLength="94" x="880" y="649.2808">double getArea()</text><ellipse cx="871" cy="658.875" fill="#84BE84" rx="3" ry="3" style="stroke: #038048; stroke-width: 1.0;"/><text fill="#000000" font-family="sans-serif" font-size="11" lengthAdjust="spacingAndGlyphs" textLength="124" x="880" y="662.0854">double getPerimeter()</text><ellipse cx="871" cy="671.6797" fill="#84BE84" rx="3" ry="3" style="stroke: #038048; stroke-width: 1.0;"/><text fill="#000000" font-family="sans-serif" font-size="11" lengthAdjust="spacingAndGlyphs" textLength="91" x="880" y="674.8901">String toString()</text><!--reverse link Comparable to Shape--><path d="M517,89.6019 C517,101.7297 517,115.1186 517,128.7249 " fill="none" id="Comparable&lt;-Shape" style="stroke: #A80036; stroke-width: 1.0;"/><polygon fill="none" points="510.0001,89.3594,517,69.3594,524.0001,89.3593,510.0001,89.3594" style="stroke: #A80036; stroke-width: 1.0;"/><!--reverse link Shape to User--><path d="M402.1667,266.9155 C322.8893,292.8704 219.0087,336.5408 146,403 C117.1605,429.2524 96.181,468.5572 83.1209,498.6798 " fill="none" id="Shape&lt;-User" style="stroke: #A80036; stroke-width: 1.0;"/><polygon fill="#A80036" points="414.6705,262.9013,407.735,260.9269,403.2449,266.5696,410.1805,268.544,414.6705,262.9013" style="stroke: #A80036; stroke-width: 1.0;"/><!--reverse link Shape to Circle--><path d="M413.1787,358.6821 C400.6303,373.5938 388.0102,388.6302 376,403 C365.7563,415.2563 355.03,428.1458 344.4199,440.9299 " fill="none" id="Shape&lt;-Circle" style="stroke: #A80036; stroke-width: 1.0;"/><polygon fill="none" points="407.963,354.0085,426.201,343.2208,418.671,363.0273,407.963,354.0085" style="stroke: #A80036; stroke-width: 1.0;"/><!--reverse link Shape to Rectangle--><path d="M517,363.0719 C517,382.5636 517,402.6336 517,421.9664 " fill="none" id="Shape&lt;-Rectangle" style="stroke: #A80036; stroke-width: 1.0;"/><polygon fill="none" points="510.0001,363.024,517,343.024,524.0001,363.0239,510.0001,363.024" style="stroke: #A80036; stroke-width: 1.0;"/><!--reverse link Shape to Square--><path d="M623.5596,358.9632 C635.4286,373.6068 647.1406,388.5035 658,403 C667.0221,415.0438 676.1748,427.9299 685.0329,440.8192 " fill="none" id="Shape&lt;-Square" style="stroke: #A80036; stroke-width: 1.0;"/><polygon fill="none" points="617.9091,363.1117,610.6516,343.2036,628.7399,354.2407,617.9091,363.1117" style="stroke: #A80036; stroke-width: 1.0;"/><!--reverse link Shape to Triangle--><path d="M637.5548,286.617 C701.4304,316.124 779.57,356.6344 843,403 C848.6278,407.1138 854.2393,411.4601 859.8008,415.9752 " fill="none" id="Shape&lt;-Triangle" style="stroke: #A80036; stroke-width: 1.0;"/><polygon fill="none" points="634.3841,292.8648,619.0836,278.2055,640.1863,280.1237,634.3841,292.8648" style="stroke: #A80036; stroke-width: 1.0;"/><!--
@startuml   Camparable Geometric
interface Comparable {
    + int compareTo(T obj)
}

class User {
    - Scanner sc

    + User()
    + double getInput()
}

abstract class Shape {
    # int xPos
    # int yPos
    # User user

    # Shape(int xPos, int yPos)

    + {abstract} void draw()
    + {abstract} void erase()
    + {abstract} double getArea()

    + void moveTo(int xPos, int yPos)
    + int compareTo(Shape shape)

    + String toString()
}
class Circle {
    - double raidus

    + Circle() 
    + Circle(double radius)

    + double getRadius()
    + void setRadius(double radius)

    + void draw()
    + void erase()
    + double getArea()
    + double getPerimeter()
    + String toString()
}
class Rectangle {
    - double width
    - double height

    + Rectangle()
    + Rectangle(double width, double height)

    + double getWidth()
    + void setWidth(double width)
    + double getHeight()
    + void setHeight(double height)

    + void draw()
    + void erase()
    + double getArea()
    + double getPerimeter()
    + String toString()
}
class Square {
    - double size

    + Square()
    + Square(double size)

    + getSize()
    + setSize(double size)

    + void draw()
    + void erase()
    + double getArea()
    + double getPerimeter()
    + String toString()
}
class Triangle {
    - double a
    - double b
    - double c

    + Triangle()
    + Triangle(double a, double b, double c)

    + double getA()
    + void setA(double a)
    + double getB()
    + void setB(double b)
    + double getC()
    + void setC(double c)

    + void draw()
    + void erase()
    + double getArea()
    + double getPerimeter()
    + String toString()
}

Comparable <|- - Shape

Shape *- - User
Shape <|- - Circle
Shape <|- - Rectangle
Shape <|- - Square
Shape <|- - Triangle

@enduml

PlantUML version 1.2019.09(Mon Aug 26 23:19:51 ICT 2019)
(GPL source distribution)
Java Runtime: OpenJDK Runtime Environment
JVM: OpenJDK 64-Bit Server VM
Java Version: 1.8.0_171-8u171-b11-2-b11
Operating System: Linux
OS Version: 4.19.0-kali1-amd64
Default Encoding: UTF-8
Language: en
Country: US
--></g></svg>