<?xml version="1.0" encoding="UTF-8" standalone="no"?><svg xmlns="http://www.w3.org/2000/svg" xmlns:xlink="http://www.w3.org/1999/xlink" contentScriptType="application/ecmascript" contentStyleType="text/css" height="559px" preserveAspectRatio="none" style="width:1113px;height:559px;" version="1.1" viewBox="0 0 1113 559" width="1113px" zoomAndPan="magnify"><defs><filter height="300%" id="f8gt6iym4nu2g" width="300%" x="-1" y="-1"><feGaussianBlur result="blurOut" stdDeviation="2.0"/><feColorMatrix in="blurOut" result="blurOut2" type="matrix" values="0 0 0 0 0 0 0 0 0 0 0 0 0 0 0 0 0 0 .4 0"/><feOffset dx="4.0" dy="4.0" in="blurOut2" result="blurOut3"/><feBlend in="SourceGraphic" in2="blurOut3" mode="normal"/></filter></defs><g><!--class Colorable--><rect fill="#FEFECE" filter="url(#f8gt6iym4nu2g)" height="60.8047" id="Colorable" style="stroke: #A80036; stroke-width: 1.5;" width="128" x="134" y="78.5"/><ellipse cx="165.65" cy="94.5" fill="#B4A7E5" rx="11" ry="11" style="stroke: #A80036; stroke-width: 1.0;"/><path d="M161.5719,90.2656 L161.5719,88.1094 L168.9625,88.1094 L168.9625,90.2656 L166.4938,90.2656 L166.4938,98.3438 L168.9625,98.3438 L168.9625,100.5 L161.5719,100.5 L161.5719,98.3438 L164.0406,98.3438 L164.0406,90.2656 L161.5719,90.2656 Z "/><text fill="#000000" font-family="sans-serif" font-size="12" font-style="italic" lengthAdjust="spacingAndGlyphs" textLength="59" x="183.35" y="98.6543">Colorable</text><line style="stroke: #A80036; stroke-width: 1.5;" x1="135" x2="261" y1="110.5" y2="110.5"/><line style="stroke: #A80036; stroke-width: 1.5;" x1="135" x2="261" y1="118.5" y2="118.5"/><ellipse cx="145" cy="129.5" fill="#84BE84" rx="3" ry="3" style="stroke: #038048; stroke-width: 1.0;"/><text fill="#000000" font-family="sans-serif" font-size="11" lengthAdjust="spacingAndGlyphs" textLength="102" x="154" y="132.7104">void howToColor()</text><!--class User--><rect fill="#FEFECE" filter="url(#f8gt6iym4nu2g)" height="86.4141" id="User" style="stroke: #A80036; stroke-width: 1.5;" width="122" x="472" y="366"/><ellipse cx="514.45" cy="382" fill="#ADD1B2" rx="11" ry="11" style="stroke: #A80036; stroke-width: 1.0;"/><path d="M517.4188,387.6406 Q516.8406,387.9375 516.2,388.0859 Q515.5594,388.2344 514.8563,388.2344 Q512.3563,388.2344 511.0359,386.5859 Q509.7156,384.9375 509.7156,381.8125 Q509.7156,378.6875 511.0359,377.0313 Q512.3563,375.375 514.8563,375.375 Q515.5594,375.375 516.2078,375.5313 Q516.8563,375.6875 517.4188,375.9844 L517.4188,378.7031 Q516.7938,378.125 516.2,377.8516 Q515.6063,377.5781 514.9813,377.5781 Q513.6375,377.5781 512.95,378.6484 Q512.2625,379.7188 512.2625,381.8125 Q512.2625,383.9063 512.95,384.9766 Q513.6375,386.0469 514.9813,386.0469 Q515.6063,386.0469 516.2,385.7734 Q516.7938,385.5 517.4188,384.9219 L517.4188,387.6406 Z "/><text fill="#000000" font-family="sans-serif" font-size="12" lengthAdjust="spacingAndGlyphs" textLength="29" x="534.55" y="386.1543">User</text><line style="stroke: #A80036; stroke-width: 1.5;" x1="473" x2="593" y1="398" y2="398"/><rect fill="none" height="6" style="stroke: #C82930; stroke-width: 1.0;" width="6" x="480" y="406"/><text fill="#000000" font-family="sans-serif" font-size="11" lengthAdjust="spacingAndGlyphs" textLength="64" x="492" y="412.2104">Scanner sc</text><line style="stroke: #A80036; stroke-width: 1.5;" x1="473" x2="593" y1="418.8047" y2="418.8047"/><ellipse cx="483" cy="429.8047" fill="#84BE84" rx="3" ry="3" style="stroke: #038048; stroke-width: 1.0;"/><text fill="#000000" font-family="sans-serif" font-size="11" lengthAdjust="spacingAndGlyphs" textLength="35" x="492" y="433.0151">User()</text><ellipse cx="483" cy="442.6094" fill="#84BE84" rx="3" ry="3" style="stroke: #038048; stroke-width: 1.0;"/><text fill="#000000" font-family="sans-serif" font-size="11" lengthAdjust="spacingAndGlyphs" textLength="96" x="492" y="445.8198">double getInput()</text><!--class Shape--><rect fill="#FEFECE" filter="url(#f8gt6iym4nu2g)" height="201.6563" id="Shape" style="stroke: #A80036; stroke-width: 1.5;" width="204" x="431" y="8"/><ellipse cx="508.75" cy="24" fill="#A9DCDF" rx="11" ry="11" style="stroke: #A80036; stroke-width: 1.0;"/><path d="M508.8594,19.3438 L507.7031,24.4219 L510.0313,24.4219 L508.8594,19.3438 Z M507.375,17.1094 L510.3594,17.1094 L513.7188,29.5 L511.2656,29.5 L510.5,26.4375 L507.2188,26.4375 L506.4688,29.5 L504.0313,29.5 L507.375,17.1094 Z "/><text fill="#000000" font-family="sans-serif" font-size="12" font-style="italic" lengthAdjust="spacingAndGlyphs" textLength="40" x="529.25" y="28.1543">Shape</text><line style="stroke: #A80036; stroke-width: 1.5;" x1="432" x2="634" y1="40" y2="40"/><polygon fill="none" points="442,46,446,50,442,54,438,50" style="stroke: #B38D22; stroke-width: 1.0;"/><text fill="#000000" font-family="sans-serif" font-size="11" lengthAdjust="spacingAndGlyphs" textLength="45" x="451" y="54.2104">int xPos</text><polygon fill="none" points="442,58.8047,446,62.8047,442,66.8047,438,62.8047" style="stroke: #B38D22; stroke-width: 1.0;"/><text fill="#000000" font-family="sans-serif" font-size="11" lengthAdjust="spacingAndGlyphs" textLength="45" x="451" y="67.0151">int yPos</text><polygon fill="none" points="442,71.6094,446,75.6094,442,79.6094,438,75.6094" style="stroke: #B38D22; stroke-width: 1.0;"/><text fill="#000000" font-family="sans-serif" font-size="11" lengthAdjust="spacingAndGlyphs" textLength="57" x="451" y="79.8198">User user</text><line style="stroke: #A80036; stroke-width: 1.5;" x1="432" x2="634" y1="86.4141" y2="86.4141"/><polygon fill="#FFFF44" points="442,92.4141,446,96.4141,442,100.4141,438,96.4141" style="stroke: #B38D22; stroke-width: 1.0;"/><text fill="#000000" font-family="sans-serif" font-size="11" lengthAdjust="spacingAndGlyphs" textLength="142" x="451" y="100.6245">Shape(int xPos, int yPos)</text><text fill="#000000" font-family="sans-serif" font-size="11" lengthAdjust="spacingAndGlyphs" textLength="0" x="455" y="113.4292"/><ellipse cx="442" cy="123.0234" fill="#84BE84" rx="3" ry="3" style="stroke: #038048; stroke-width: 1.0;"/><text fill="#000000" font-family="sans-serif" font-size="11" font-style="italic" lengthAdjust="spacingAndGlyphs" textLength="64" x="451" y="126.2339">void draw()</text><ellipse cx="442" cy="135.8281" fill="#84BE84" rx="3" ry="3" style="stroke: #038048; stroke-width: 1.0;"/><text fill="#000000" font-family="sans-serif" font-size="11" font-style="italic" lengthAdjust="spacingAndGlyphs" textLength="68" x="451" y="139.0386">void erase()</text><ellipse cx="442" cy="148.6328" fill="#84BE84" rx="3" ry="3" style="stroke: #038048; stroke-width: 1.0;"/><text fill="#000000" font-family="sans-serif" font-size="11" font-style="italic" lengthAdjust="spacingAndGlyphs" textLength="95" x="451" y="151.8433">double getArea()</text><text fill="#000000" font-family="sans-serif" font-size="11" lengthAdjust="spacingAndGlyphs" textLength="0" x="455" y="164.6479"/><ellipse cx="442" cy="174.2422" fill="#84BE84" rx="3" ry="3" style="stroke: #038048; stroke-width: 1.0;"/><text fill="#000000" font-family="sans-serif" font-size="11" lengthAdjust="spacingAndGlyphs" textLength="178" x="451" y="177.4526">void moveTo(int xPos, int yPos)</text><text fill="#000000" font-family="sans-serif" font-size="11" lengthAdjust="spacingAndGlyphs" textLength="0" x="455" y="190.2573"/><ellipse cx="442" cy="199.8516" fill="#84BE84" rx="3" ry="3" style="stroke: #038048; stroke-width: 1.0;"/><text fill="#000000" font-family="sans-serif" font-size="11" lengthAdjust="spacingAndGlyphs" textLength="91" x="451" y="203.062">String toString()</text><!--class Circle--><rect fill="#FEFECE" filter="url(#f8gt6iym4nu2g)" height="201.6563" id="Circle" style="stroke: #A80036; stroke-width: 1.5;" width="195" x="629.5" y="308"/><ellipse cx="705.75" cy="324" fill="#ADD1B2" rx="11" ry="11" style="stroke: #A80036; stroke-width: 1.0;"/><path d="M708.7188,329.6406 Q708.1406,329.9375 707.5,330.0859 Q706.8594,330.2344 706.1563,330.2344 Q703.6563,330.2344 702.3359,328.5859 Q701.0156,326.9375 701.0156,323.8125 Q701.0156,320.6875 702.3359,319.0313 Q703.6563,317.375 706.1563,317.375 Q706.8594,317.375 707.5078,317.5313 Q708.1563,317.6875 708.7188,317.9844 L708.7188,320.7031 Q708.0938,320.125 707.5,319.8516 Q706.9063,319.5781 706.2813,319.5781 Q704.9375,319.5781 704.25,320.6484 Q703.5625,321.7188 703.5625,323.8125 Q703.5625,325.9063 704.25,326.9766 Q704.9375,328.0469 706.2813,328.0469 Q706.9063,328.0469 707.5,327.7734 Q708.0938,327.5 708.7188,326.9219 L708.7188,329.6406 Z "/><text fill="#000000" font-family="sans-serif" font-size="12" lengthAdjust="spacingAndGlyphs" textLength="34" x="726.25" y="328.1543">Circle</text><line style="stroke: #A80036; stroke-width: 1.5;" x1="630.5" x2="823.5" y1="340" y2="340"/><rect fill="none" height="6" style="stroke: #C82930; stroke-width: 1.0;" width="6" x="637.5" y="348"/><text fill="#000000" font-family="sans-serif" font-size="11" lengthAdjust="spacingAndGlyphs" textLength="78" x="649.5" y="354.2104">double raidus</text><line style="stroke: #A80036; stroke-width: 1.5;" x1="630.5" x2="823.5" y1="360.8047" y2="360.8047"/><ellipse cx="640.5" cy="371.8047" fill="#84BE84" rx="3" ry="3" style="stroke: #038048; stroke-width: 1.0;"/><text fill="#000000" font-family="sans-serif" font-size="11" lengthAdjust="spacingAndGlyphs" textLength="40" x="649.5" y="375.0151">Circle()</text><ellipse cx="640.5" cy="384.6094" fill="#84BE84" rx="3" ry="3" style="stroke: #038048; stroke-width: 1.0;"/><text fill="#000000" font-family="sans-serif" font-size="11" lengthAdjust="spacingAndGlyphs" textLength="118" x="649.5" y="387.8198">Circle(double radius)</text><text fill="#000000" font-family="sans-serif" font-size="11" lengthAdjust="spacingAndGlyphs" textLength="0" x="653.5" y="400.6245"/><ellipse cx="640.5" cy="410.2188" fill="#84BE84" rx="3" ry="3" style="stroke: #038048; stroke-width: 1.0;"/><text fill="#000000" font-family="sans-serif" font-size="11" lengthAdjust="spacingAndGlyphs" textLength="106" x="649.5" y="413.4292">double getRadius()</text><ellipse cx="640.5" cy="423.0234" fill="#84BE84" rx="3" ry="3" style="stroke: #038048; stroke-width: 1.0;"/><text fill="#000000" font-family="sans-serif" font-size="11" lengthAdjust="spacingAndGlyphs" textLength="169" x="649.5" y="426.2339">void setRadius(double radius)</text><text fill="#000000" font-family="sans-serif" font-size="11" lengthAdjust="spacingAndGlyphs" textLength="0" x="653.5" y="439.0386"/><ellipse cx="640.5" cy="448.6328" fill="#84BE84" rx="3" ry="3" style="stroke: #038048; stroke-width: 1.0;"/><text fill="#000000" font-family="sans-serif" font-size="11" lengthAdjust="spacingAndGlyphs" textLength="63" x="649.5" y="451.8433">void draw()</text><ellipse cx="640.5" cy="461.4375" fill="#84BE84" rx="3" ry="3" style="stroke: #038048; stroke-width: 1.0;"/><text fill="#000000" font-family="sans-serif" font-size="11" lengthAdjust="spacingAndGlyphs" textLength="68" x="649.5" y="464.6479">void erase()</text><ellipse cx="640.5" cy="474.2422" fill="#84BE84" rx="3" ry="3" style="stroke: #038048; stroke-width: 1.0;"/><text fill="#000000" font-family="sans-serif" font-size="11" lengthAdjust="spacingAndGlyphs" textLength="94" x="649.5" y="477.4526">double getArea()</text><ellipse cx="640.5" cy="487.0469" fill="#84BE84" rx="3" ry="3" style="stroke: #038048; stroke-width: 1.0;"/><text fill="#000000" font-family="sans-serif" font-size="11" lengthAdjust="spacingAndGlyphs" textLength="124" x="649.5" y="490.2573">double getPerimeter()</text><ellipse cx="640.5" cy="499.8516" fill="#84BE84" rx="3" ry="3" style="stroke: #038048; stroke-width: 1.0;"/><text fill="#000000" font-family="sans-serif" font-size="11" lengthAdjust="spacingAndGlyphs" textLength="91" x="649.5" y="503.062">String toString()</text><!--class Rectangle--><rect fill="#FEFECE" filter="url(#f8gt6iym4nu2g)" height="252.875" id="Rectangle" style="stroke: #A80036; stroke-width: 1.5;" width="246" x="191" y="282.5"/><ellipse cx="278.25" cy="298.5" fill="#ADD1B2" rx="11" ry="11" style="stroke: #A80036; stroke-width: 1.0;"/><path d="M281.2188,304.1406 Q280.6406,304.4375 280,304.5859 Q279.3594,304.7344 278.6563,304.7344 Q276.1563,304.7344 274.8359,303.0859 Q273.5156,301.4375 273.5156,298.3125 Q273.5156,295.1875 274.8359,293.5313 Q276.1563,291.875 278.6563,291.875 Q279.3594,291.875 280.0078,292.0313 Q280.6563,292.1875 281.2188,292.4844 L281.2188,295.2031 Q280.5938,294.625 280,294.3516 Q279.4063,294.0781 278.7813,294.0781 Q277.4375,294.0781 276.75,295.1484 Q276.0625,296.2188 276.0625,298.3125 Q276.0625,300.4063 276.75,301.4766 Q277.4375,302.5469 278.7813,302.5469 Q279.4063,302.5469 280,302.2734 Q280.5938,302 281.2188,301.4219 L281.2188,304.1406 Z "/><text fill="#000000" font-family="sans-serif" font-size="12" lengthAdjust="spacingAndGlyphs" textLength="63" x="298.75" y="302.6543">Rectangle</text><line style="stroke: #A80036; stroke-width: 1.5;" x1="192" x2="436" y1="314.5" y2="314.5"/><rect fill="none" height="6" style="stroke: #C82930; stroke-width: 1.0;" width="6" x="199" y="322.5"/><text fill="#000000" font-family="sans-serif" font-size="11" lengthAdjust="spacingAndGlyphs" textLength="72" x="211" y="328.7104">double width</text><rect fill="none" height="6" style="stroke: #C82930; stroke-width: 1.0;" width="6" x="199" y="335.3047"/><text fill="#000000" font-family="sans-serif" font-size="11" lengthAdjust="spacingAndGlyphs" textLength="77" x="211" y="341.5151">double height</text><line style="stroke: #A80036; stroke-width: 1.5;" x1="192" x2="436" y1="348.1094" y2="348.1094"/><ellipse cx="202" cy="359.1094" fill="#84BE84" rx="3" ry="3" style="stroke: #038048; stroke-width: 1.0;"/><text fill="#000000" font-family="sans-serif" font-size="11" lengthAdjust="spacingAndGlyphs" textLength="63" x="211" y="362.3198">Rectangle()</text><ellipse cx="202" cy="371.9141" fill="#84BE84" rx="3" ry="3" style="stroke: #038048; stroke-width: 1.0;"/><text fill="#000000" font-family="sans-serif" font-size="11" lengthAdjust="spacingAndGlyphs" textLength="220" x="211" y="375.1245">Rectangle(double width, double height)</text><text fill="#000000" font-family="sans-serif" font-size="11" lengthAdjust="spacingAndGlyphs" textLength="0" x="215" y="387.9292"/><ellipse cx="202" cy="397.5234" fill="#84BE84" rx="3" ry="3" style="stroke: #038048; stroke-width: 1.0;"/><text fill="#000000" font-family="sans-serif" font-size="11" lengthAdjust="spacingAndGlyphs" textLength="98" x="211" y="400.7339">double getWidth()</text><ellipse cx="202" cy="410.3281" fill="#84BE84" rx="3" ry="3" style="stroke: #038048; stroke-width: 1.0;"/><text fill="#000000" font-family="sans-serif" font-size="11" lengthAdjust="spacingAndGlyphs" textLength="155" x="211" y="413.5386">void setWidth(double width)</text><ellipse cx="202" cy="423.1328" fill="#84BE84" rx="3" ry="3" style="stroke: #038048; stroke-width: 1.0;"/><text fill="#000000" font-family="sans-serif" font-size="11" lengthAdjust="spacingAndGlyphs" textLength="104" x="211" y="426.3433">double getHeight()</text><ellipse cx="202" cy="435.9375" fill="#84BE84" rx="3" ry="3" style="stroke: #038048; stroke-width: 1.0;"/><text fill="#000000" font-family="sans-serif" font-size="11" lengthAdjust="spacingAndGlyphs" textLength="166" x="211" y="439.1479">void setHeight(double height)</text><text fill="#000000" font-family="sans-serif" font-size="11" lengthAdjust="spacingAndGlyphs" textLength="0" x="215" y="451.9526"/><ellipse cx="202" cy="461.5469" fill="#84BE84" rx="3" ry="3" style="stroke: #038048; stroke-width: 1.0;"/><text fill="#000000" font-family="sans-serif" font-size="11" lengthAdjust="spacingAndGlyphs" textLength="63" x="211" y="464.7573">void draw()</text><ellipse cx="202" cy="474.3516" fill="#84BE84" rx="3" ry="3" style="stroke: #038048; stroke-width: 1.0;"/><text fill="#000000" font-family="sans-serif" font-size="11" lengthAdjust="spacingAndGlyphs" textLength="68" x="211" y="477.562">void erase()</text><ellipse cx="202" cy="487.1563" fill="#84BE84" rx="3" ry="3" style="stroke: #038048; stroke-width: 1.0;"/><text fill="#000000" font-family="sans-serif" font-size="11" lengthAdjust="spacingAndGlyphs" textLength="94" x="211" y="490.3667">double getArea()</text><ellipse cx="202" cy="499.9609" fill="#84BE84" rx="3" ry="3" style="stroke: #038048; stroke-width: 1.0;"/><text fill="#000000" font-family="sans-serif" font-size="11" lengthAdjust="spacingAndGlyphs" textLength="124" x="211" y="503.1714">double getPerimeter()</text><ellipse cx="202" cy="512.7656" fill="#84BE84" rx="3" ry="3" style="stroke: #038048; stroke-width: 1.0;"/><text fill="#000000" font-family="sans-serif" font-size="11" lengthAdjust="spacingAndGlyphs" textLength="102" x="211" y="515.9761">void howToColor()</text><ellipse cx="202" cy="525.5703" fill="#84BE84" rx="3" ry="3" style="stroke: #038048; stroke-width: 1.0;"/><text fill="#000000" font-family="sans-serif" font-size="11" lengthAdjust="spacingAndGlyphs" textLength="91" x="211" y="528.7808">String toString()</text><!--class Square--><rect fill="#FEFECE" filter="url(#f8gt6iym4nu2g)" height="214.4609" id="Square" style="stroke: #A80036; stroke-width: 1.5;" width="150" x="6" y="302"/><ellipse cx="54.25" cy="318" fill="#ADD1B2" rx="11" ry="11" style="stroke: #A80036; stroke-width: 1.0;"/><path d="M57.2188,323.6406 Q56.6406,323.9375 56,324.0859 Q55.3594,324.2344 54.6563,324.2344 Q52.1563,324.2344 50.8359,322.5859 Q49.5156,320.9375 49.5156,317.8125 Q49.5156,314.6875 50.8359,313.0313 Q52.1563,311.375 54.6563,311.375 Q55.3594,311.375 56.0078,311.5313 Q56.6563,311.6875 57.2188,311.9844 L57.2188,314.7031 Q56.5938,314.125 56,313.8516 Q55.4063,313.5781 54.7813,313.5781 Q53.4375,313.5781 52.75,314.6484 Q52.0625,315.7188 52.0625,317.8125 Q52.0625,319.9063 52.75,320.9766 Q53.4375,322.0469 54.7813,322.0469 Q55.4063,322.0469 56,321.7734 Q56.5938,321.5 57.2188,320.9219 L57.2188,323.6406 Z "/><text fill="#000000" font-family="sans-serif" font-size="12" lengthAdjust="spacingAndGlyphs" textLength="45" x="74.75" y="322.1543">Square</text><line style="stroke: #A80036; stroke-width: 1.5;" x1="7" x2="155" y1="334" y2="334"/><rect fill="none" height="6" style="stroke: #C82930; stroke-width: 1.0;" width="6" x="14" y="342"/><text fill="#000000" font-family="sans-serif" font-size="11" lengthAdjust="spacingAndGlyphs" textLength="64" x="26" y="348.2104">double size</text><line style="stroke: #A80036; stroke-width: 1.5;" x1="7" x2="155" y1="354.8047" y2="354.8047"/><ellipse cx="17" cy="365.8047" fill="#84BE84" rx="3" ry="3" style="stroke: #038048; stroke-width: 1.0;"/><text fill="#000000" font-family="sans-serif" font-size="11" lengthAdjust="spacingAndGlyphs" textLength="49" x="26" y="369.0151">Square()</text><ellipse cx="17" cy="378.6094" fill="#84BE84" rx="3" ry="3" style="stroke: #038048; stroke-width: 1.0;"/><text fill="#000000" font-family="sans-serif" font-size="11" lengthAdjust="spacingAndGlyphs" textLength="113" x="26" y="381.8198">Square(double size)</text><text fill="#000000" font-family="sans-serif" font-size="11" lengthAdjust="spacingAndGlyphs" textLength="0" x="30" y="394.6245"/><ellipse cx="17" cy="404.2188" fill="#84BE84" rx="3" ry="3" style="stroke: #038048; stroke-width: 1.0;"/><text fill="#000000" font-family="sans-serif" font-size="11" lengthAdjust="spacingAndGlyphs" textLength="49" x="26" y="407.4292">getSize()</text><ellipse cx="17" cy="417.0234" fill="#84BE84" rx="3" ry="3" style="stroke: #038048; stroke-width: 1.0;"/><text fill="#000000" font-family="sans-serif" font-size="11" lengthAdjust="spacingAndGlyphs" textLength="113" x="26" y="420.2339">setSize(double size)</text><text fill="#000000" font-family="sans-serif" font-size="11" lengthAdjust="spacingAndGlyphs" textLength="0" x="30" y="433.0386"/><ellipse cx="17" cy="442.6328" fill="#84BE84" rx="3" ry="3" style="stroke: #038048; stroke-width: 1.0;"/><text fill="#000000" font-family="sans-serif" font-size="11" lengthAdjust="spacingAndGlyphs" textLength="63" x="26" y="445.8433">void draw()</text><ellipse cx="17" cy="455.4375" fill="#84BE84" rx="3" ry="3" style="stroke: #038048; stroke-width: 1.0;"/><text fill="#000000" font-family="sans-serif" font-size="11" lengthAdjust="spacingAndGlyphs" textLength="68" x="26" y="458.6479">void erase()</text><ellipse cx="17" cy="468.2422" fill="#84BE84" rx="3" ry="3" style="stroke: #038048; stroke-width: 1.0;"/><text fill="#000000" font-family="sans-serif" font-size="11" lengthAdjust="spacingAndGlyphs" textLength="94" x="26" y="471.4526">double getArea()</text><ellipse cx="17" cy="481.0469" fill="#84BE84" rx="3" ry="3" style="stroke: #038048; stroke-width: 1.0;"/><text fill="#000000" font-family="sans-serif" font-size="11" lengthAdjust="spacingAndGlyphs" textLength="124" x="26" y="484.2573">double getPerimeter()</text><ellipse cx="17" cy="493.8516" fill="#84BE84" rx="3" ry="3" style="stroke: #038048; stroke-width: 1.0;"/><text fill="#000000" font-family="sans-serif" font-size="11" lengthAdjust="spacingAndGlyphs" textLength="102" x="26" y="497.062">void howToColor()</text><ellipse cx="17" cy="506.6563" fill="#84BE84" rx="3" ry="3" style="stroke: #038048; stroke-width: 1.0;"/><text fill="#000000" font-family="sans-serif" font-size="11" lengthAdjust="spacingAndGlyphs" textLength="91" x="26" y="509.8667">String toString()</text><!--class Triangle--><rect fill="#FEFECE" filter="url(#f8gt6iym4nu2g)" height="278.4844" id="Triangle" style="stroke: #A80036; stroke-width: 1.5;" width="242" x="860" y="270"/><ellipse cx="951.75" cy="286" fill="#ADD1B2" rx="11" ry="11" style="stroke: #A80036; stroke-width: 1.0;"/><path d="M954.7188,291.6406 Q954.1406,291.9375 953.5,292.0859 Q952.8594,292.2344 952.1563,292.2344 Q949.6563,292.2344 948.3359,290.5859 Q947.0156,288.9375 947.0156,285.8125 Q947.0156,282.6875 948.3359,281.0313 Q949.6563,279.375 952.1563,279.375 Q952.8594,279.375 953.5078,279.5313 Q954.1563,279.6875 954.7188,279.9844 L954.7188,282.7031 Q954.0938,282.125 953.5,281.8516 Q952.9063,281.5781 952.2813,281.5781 Q950.9375,281.5781 950.25,282.6484 Q949.5625,283.7188 949.5625,285.8125 Q949.5625,287.9063 950.25,288.9766 Q950.9375,290.0469 952.2813,290.0469 Q952.9063,290.0469 953.5,289.7734 Q954.0938,289.5 954.7188,288.9219 L954.7188,291.6406 Z "/><text fill="#000000" font-family="sans-serif" font-size="12" lengthAdjust="spacingAndGlyphs" textLength="50" x="972.25" y="290.1543">Triangle</text><line style="stroke: #A80036; stroke-width: 1.5;" x1="861" x2="1101" y1="302" y2="302"/><rect fill="none" height="6" style="stroke: #C82930; stroke-width: 1.0;" width="6" x="868" y="310"/><text fill="#000000" font-family="sans-serif" font-size="11" lengthAdjust="spacingAndGlyphs" textLength="49" x="880" y="316.2104">double a</text><rect fill="none" height="6" style="stroke: #C82930; stroke-width: 1.0;" width="6" x="868" y="322.8047"/><text fill="#000000" font-family="sans-serif" font-size="11" lengthAdjust="spacingAndGlyphs" textLength="49" x="880" y="329.0151">double b</text><rect fill="none" height="6" style="stroke: #C82930; stroke-width: 1.0;" width="6" x="868" y="335.6094"/><text fill="#000000" font-family="sans-serif" font-size="11" lengthAdjust="spacingAndGlyphs" textLength="48" x="880" y="341.8198">double c</text><line style="stroke: #A80036; stroke-width: 1.5;" x1="861" x2="1101" y1="348.4141" y2="348.4141"/><ellipse cx="871" cy="359.4141" fill="#84BE84" rx="3" ry="3" style="stroke: #038048; stroke-width: 1.0;"/><text fill="#000000" font-family="sans-serif" font-size="11" lengthAdjust="spacingAndGlyphs" textLength="54" x="880" y="362.6245">Triangle()</text><ellipse cx="871" cy="372.2188" fill="#84BE84" rx="3" ry="3" style="stroke: #038048; stroke-width: 1.0;"/><text fill="#000000" font-family="sans-serif" font-size="11" lengthAdjust="spacingAndGlyphs" textLength="216" x="880" y="375.4292">Triangle(double a, double b, double c)</text><text fill="#000000" font-family="sans-serif" font-size="11" lengthAdjust="spacingAndGlyphs" textLength="0" x="884" y="388.2339"/><ellipse cx="871" cy="397.8281" fill="#84BE84" rx="3" ry="3" style="stroke: #038048; stroke-width: 1.0;"/><text fill="#000000" font-family="sans-serif" font-size="11" lengthAdjust="spacingAndGlyphs" textLength="75" x="880" y="401.0386">double getA()</text><ellipse cx="871" cy="410.6328" fill="#84BE84" rx="3" ry="3" style="stroke: #038048; stroke-width: 1.0;"/><text fill="#000000" font-family="sans-serif" font-size="11" lengthAdjust="spacingAndGlyphs" textLength="109" x="880" y="413.8433">void setA(double a)</text><ellipse cx="871" cy="423.4375" fill="#84BE84" rx="3" ry="3" style="stroke: #038048; stroke-width: 1.0;"/><text fill="#000000" font-family="sans-serif" font-size="11" lengthAdjust="spacingAndGlyphs" textLength="76" x="880" y="426.6479">double getB()</text><ellipse cx="871" cy="436.2422" fill="#84BE84" rx="3" ry="3" style="stroke: #038048; stroke-width: 1.0;"/><text fill="#000000" font-family="sans-serif" font-size="11" lengthAdjust="spacingAndGlyphs" textLength="110" x="880" y="439.4526">void setB(double b)</text><ellipse cx="871" cy="449.0469" fill="#84BE84" rx="3" ry="3" style="stroke: #038048; stroke-width: 1.0;"/><text fill="#000000" font-family="sans-serif" font-size="11" lengthAdjust="spacingAndGlyphs" textLength="76" x="880" y="452.2573">double getC()</text><ellipse cx="871" cy="461.8516" fill="#84BE84" rx="3" ry="3" style="stroke: #038048; stroke-width: 1.0;"/><text fill="#000000" font-family="sans-serif" font-size="11" lengthAdjust="spacingAndGlyphs" textLength="109" x="880" y="465.062">void setC(double c)</text><text fill="#000000" font-family="sans-serif" font-size="11" lengthAdjust="spacingAndGlyphs" textLength="0" x="884" y="477.8667"/><ellipse cx="871" cy="487.4609" fill="#84BE84" rx="3" ry="3" style="stroke: #038048; stroke-width: 1.0;"/><text fill="#000000" font-family="sans-serif" font-size="11" lengthAdjust="spacingAndGlyphs" textLength="63" x="880" y="490.6714">void draw()</text><ellipse cx="871" cy="500.2656" fill="#84BE84" rx="3" ry="3" style="stroke: #038048; stroke-width: 1.0;"/><text fill="#000000" font-family="sans-serif" font-size="11" lengthAdjust="spacingAndGlyphs" textLength="68" x="880" y="503.4761">void erase()</text><ellipse cx="871" cy="513.0703" fill="#84BE84" rx="3" ry="3" style="stroke: #038048; stroke-width: 1.0;"/><text fill="#000000" font-family="sans-serif" font-size="11" lengthAdjust="spacingAndGlyphs" textLength="94" x="880" y="516.2808">double getArea()</text><ellipse cx="871" cy="525.875" fill="#84BE84" rx="3" ry="3" style="stroke: #038048; stroke-width: 1.0;"/><text fill="#000000" font-family="sans-serif" font-size="11" lengthAdjust="spacingAndGlyphs" textLength="124" x="880" y="529.0854">double getPerimeter()</text><ellipse cx="871" cy="538.6797" fill="#84BE84" rx="3" ry="3" style="stroke: #038048; stroke-width: 1.0;"/><text fill="#000000" font-family="sans-serif" font-size="11" lengthAdjust="spacingAndGlyphs" textLength="91" x="880" y="541.8901">String toString()</text><!--reverse link Colorable to Square--><path d="M178.7509,158.3566 C163.6058,197.1903 141.9449,252.731 122.8608,301.6645 " fill="none" id="Colorable&lt;-Square" style="stroke: #A80036; stroke-width: 1.0;"/><polygon fill="none" points="172.2402,155.7851,186.0288,139.6954,185.2834,160.872,172.2402,155.7851" style="stroke: #A80036; stroke-width: 1.0;"/><!--reverse link Colorable to Rectangle--><path d="M217.1383,158.4955 C230.2056,192.2904 248.1473,238.6912 265.04,282.3793 " fill="none" id="Colorable&lt;-Rectangle" style="stroke: #A80036; stroke-width: 1.0;"/><polygon fill="none" points="210.5529,160.874,209.8689,139.6954,223.6108,155.825,210.5529,160.874" style="stroke: #A80036; stroke-width: 1.0;"/><!--reverse link Shape to User--><path d="M533,223.3767 C533,273.2843 533,328.7761 533,365.9724 " fill="none" id="Shape&lt;-User" style="stroke: #A80036; stroke-width: 1.0;"/><polygon fill="#A80036" points="533,210.1481,529,216.1481,533,222.1481,537,216.1481,533,210.1481" style="stroke: #A80036; stroke-width: 1.0;"/><!--reverse link Shape to Circle--><path d="M609.311,227.0067 C626.5814,253.7135 644.7695,281.8394 661.545,307.7809 " fill="none" id="Shape&lt;-Circle" style="stroke: #A80036; stroke-width: 1.0;"/><polygon fill="none" points="603.3915,230.7437,598.4091,210.1481,615.1476,223.1414,603.3915,230.7437" style="stroke: #A80036; stroke-width: 1.0;"/><!--reverse link Shape to Rectangle--><path d="M447.2617,226.4497 C433.8414,244.8338 419.9207,263.9032 406.3597,282.4799 " fill="none" id="Shape&lt;-Rectangle" style="stroke: #A80036; stroke-width: 1.0;"/><polygon fill="none" points="441.7158,222.1745,459.1619,210.1481,453.0234,230.4291,441.7158,222.1745" style="stroke: #A80036; stroke-width: 1.0;"/><!--reverse link Shape to Square--><path d="M411.7494,154.7596 C322.7815,189.8841 211.1074,237.685 173,270 C162.0746,279.2647 151.9346,290.1435 142.6847,301.6658 " fill="none" id="Shape&lt;-Square" style="stroke: #A80036; stroke-width: 1.0;"/><polygon fill="none" points="409.4664,148.136,430.6417,147.3553,414.575,161.1707,409.4664,148.136" style="stroke: #A80036; stroke-width: 1.0;"/><!--reverse link Shape to Triangle--><path d="M653.6879,161.2958 C712.9387,189.5523 783.8877,227.3738 842,270 C847.9165,274.3398 853.8196,278.9311 859.6698,283.701 " fill="none" id="Shape&lt;-Triangle" style="stroke: #A80036; stroke-width: 1.0;"/><polygon fill="none" points="650.4205,167.4947,635.2983,152.6515,656.3762,154.8247,650.4205,167.4947" style="stroke: #A80036; stroke-width: 1.0;"/><!--
@startuml   Colorable Geometric
interface Colorable {
    + void howToColor()
}

class User {
    - Scanner sc

    + User()
    + double getInput()
}

abstract class Shape {
    # int xPos
    # int yPos
    # User user

    # Shape(int xPos, int yPos)

    + {abstract} void draw()
    + {abstract} void erase()
    + {abstract} double getArea()

    + void moveTo(int xPos, int yPos)

    + String toString()
}
class Circle {
    - double raidus

    + Circle() 
    + Circle(double radius)

    + double getRadius()
    + void setRadius(double radius)

    + void draw()
    + void erase()
    + double getArea()
    + double getPerimeter()
    + String toString()
}
class Rectangle {
    - double width
    - double height

    + Rectangle()
    + Rectangle(double width, double height)

    + double getWidth()
    + void setWidth(double width)
    + double getHeight()
    + void setHeight(double height)

    + void draw()
    + void erase()
    + double getArea()
    + double getPerimeter()
    + void howToColor()
    + String toString()
}
class Square {
    - double size

    + Square()
    + Square(double size)

    + getSize()
    + setSize(double size)

    + void draw()
    + void erase()
    + double getArea()
    + double getPerimeter()
    + void howToColor()
    + String toString()
}
class Triangle {
    - double a
    - double b
    - double c

    + Triangle()
    + Triangle(double a, double b, double c)

    + double getA()
    + void setA(double a)
    + double getB()
    + void setB(double b)
    + double getC()
    + void setC(double c)

    + void draw()
    + void erase()
    + double getArea()
    + double getPerimeter()
    + String toString()
}

Colorable <|- - Square
Colorable <|- - Rectangle

Shape *- - User
Shape <|- - Circle
Shape <|- - Rectangle
Shape <|- - Square
Shape <|- - Triangle

@enduml

PlantUML version 1.2019.09(Mon Aug 26 23:19:51 ICT 2019)
(GPL source distribution)
Java Runtime: OpenJDK Runtime Environment
JVM: OpenJDK 64-Bit Server VM
Java Version: 1.8.0_171-8u171-b11-2-b11
Operating System: Linux
OS Version: 4.19.0-kali1-amd64
Default Encoding: UTF-8
Language: en
Country: US
--></g></svg>